<ttFont>
<head>
    <!-- Most of this table will be recalculated by the compiler -->
    <tableVersion value="1.0"/>
    <fontRevision value="1.09999"/>
    <checkSumAdjustment value="0x9176a444"/>
    <magicNumber value="0x5f0f3cf5"/>
    <flags value="00000000 00000011"/>
    <unitsPerEm value="1000"/>
    <created value="Fri Mar 11 13:49:31 2016"/>
    <modified value="Fri Mar 11 13:49:31 2016"/>
    <xMin value="-474"/>
    <yMin value="-405"/>
    <xMax value="1110"/>
    <yMax value="890"/>
    <macStyle value="00000000 00000000"/>
    <lowestRecPPEM value="3"/>
    <fontDirectionHint value="2"/>
    <indexToLocFormat value="0"/>
    <glyphDataFormat value="0"/>
  </head>
          <CharString index="0">
            -34 74 rlineto
            -12 -106 callgsubr
            return
          </CharString>
          <CharString index="1">
            -105 callgsubr
            -86 callsubr
            return
          </CharString>
          <CharString index="2">
            453 423 rmoveto
            -88 callgsubr
            434 vlineto
            9 53 5 51 1 52 -49 7 rcurveline
            -28 -83 -5 -11 -4 77 callgsubr
            -30 -3 -30 hhcurveto
            -100 215 hlineto
            170 -4 rlineto
            62 vlineto
            -170 -6 rlineto
            206 81 vlineto
            29 27 -3 -5 15 hvcurveto
            12 -5 6 -6 3 -11 18 -69 rcurveline
            return
          </CharString>
          <CharString index="3">
            379 568 rmoveto
            -43 vlineto
            63 -12 rlineto
            12 -2 5 -7 -13 vvcurveto
            -286 vlineto
            -105 -36 -63 -97 -85 -46 51 120 183 callsubr
            7 9 11 2 vhcurveto
            63 12 rlineto
            43 -241 -43 vlineto
            40 -11 rlineto
            11 -3 189 callsubr
            -275 vlineto
            -154 69 -71 148 135 82 63 155 vhcurveto
            -47 callsubr
            vlineto
            return
          </CharString>
          <CharString index="4">
            374 vlineto
            -77 29 -8 -8 rlineto
            return
          </CharString>
          <CharString index="5">
            -56 36 48 -36 70 hhcurveto
            73 66 40 96 19 hvcurveto
            -19 21 24 -9 26 hhcurveto
            13 15 2 6 17 hvcurveto
            -58 vlineto
            -59 9 -30 22 -29 vhcurveto
            -25 20 23 -9 21 hhcurveto
            33 39 20 29 28 -56 callgsubr
            -4 -61 callgsubr
            374 vlineto
            -78 29 -8 -8 rlineto
            -209 vlineto
            -27 -21 -27 -14 -28 hhcurveto
            -11 -12 2 6 -11 hvcurveto
            return
          </CharString>
          <CharString index="6">
            -254 vlineto
            -19 -26 -29 -10 -30 hhcurveto
            -55 -18 30 76 hvcurveto
            254 175 callgsubr
            -44 -56 -6 -12 -44 hvcurveto
            -42 vlineto
            43 -8 rlineto
            13 -3 5 -8 -12 vvcurveto
            -191 vlineto
            -101 40 -48 90 58 40 20 33 32 vhcurveto
            -32 10 23 -20 40 hhcurveto
            26 34 9 5 17 hvcurveto
            return
          </CharString>
          <CharString index="7">
            289 568 rmoveto
            -252 -101 callgsubr
            252 269 callgsubr
            13 6 7 13 2 vhcurveto
            57 12 rlineto
            return
          </CharString>
          <CharString index="8">
            hhcurveto
            -98 callsubr
            return
          </CharString>
          <CharString index="9">
            33 40 20 29 27 hvcurveto
            return
          </CharString>
          <CharString index="10">
            58 -95 callgsubr
            return
          </CharString>
          <CharString index="11">
            433 155 rmoveto
            91 -75 44 -80 40 vhcurveto
            -82 40 -48 23 63 vvcurveto
            49 31 30 57 30 28 -10 -12 15 vhcurveto
            9 -8 4 -8 2 -12 15 -77 rcurveline
            56 hlineto
            7 44 3 48 -3 48 rrcurveto
            19 -41 -59 11 -55 hhcurveto
            -128 -65 -66 -89 -98 80 -39 72 -35 hvcurveto
            73 -35 53 -26 -68 vvcurveto
            -55 -34 -34 -64 -41 -35 17 18 -17 vhcurveto
            -10 8 -3 9 -2 9 -13 88 rcurveline
            -58 hlineto
            return
          </CharString>
          <CharString index="12">
            -99 callsubr
            -107 callsubr
            return
          </CharString>
          <CharString index="13">
            39 vlineto
            -40 5 rlineto
            -13 1 -7 6 16 vvcurveto
            197 vlineto
            102 -49 50 -104 -84 -64 -33 -58 -21 vhcurveto
            22 -21 rlineto
            31 34 40 14 46 hhcurveto
            58 28 -23 -70 hvcurveto
            -47 vlineto
            -80 -6 rlineto
            -78 -5 -82 -30 -82 vvcurveto
            return
          </CharString>
          <CharString index="14">
            68 13 17 46 hvcurveto
            7 47 3 49 -2 42 -58 5 rcurveline
            -25 -78 -5 -13 -5 -7 -8 -7 rlinecurve
            -14 -19 -30 -8 -30 hhcurveto
            -106 -44 98 154 174 57 71 91 32 30 -8 -10 15 hvcurveto
            12 -6 4 -10 3 -10 19 -86 rcurveline
            58 hlineto
            8 52 3 51 -3 44 rrcurveto
            20 -51 -63 9 -51 hhcurveto
            -168 -108 -100 -204 return
          </CharString>
          <CharString index="15">
            -3 -10 -7 -6 -10 -3 rlinecurve
            -47 -11 rlineto
            -42 197 42 vlineto
            -70 13 37 116 rlineto
            207 hlineto
            39 -116 -71 -13 rlineto
            -42 234 42 vlineto
            -43 11 -10 3 -7 6 -4 10 rlinecurve
            return
          </CharString>
          <CharString index="16">
            39 vlineto
            -40 5 rlineto
            -13 1 -8 5 17 vvcurveto
            336 175 callgsubr
            -45 -60 -6 -11 -45 hvcurveto
            -42 vlineto
            50 -9 rlineto
            11 -2 7 -8 -12 vvcurveto
            return
          </CharString>
          <CharString index="17">
            -4 -64 callgsubr
            return
          </CharString>
          <CharString index="18">
            159 callsubr
            -8 -12 vvcurveto
            return
          </CharString>
          <CharString index="19">
            vstem
            400 81 rmoveto
            -4 -12 -7 -6 -10 -4 rrcurveto
            -6 -16 -27 -3 -33 hhcurveto
            -90 441 hlineto
            12 7 8 12 2 vhcurveto
            75 12 rlineto
            43 -270 -43 vlineto
            58 -11 rlineto
            12 -3 189 callsubr
            -418 vlineto
            -12 -6 -7 58 callgsubr
            431 vlineto
            12 59 3 65 55 vvcurveto
            -50 7 rlineto
            return
          </CharString>
          <CharString index="20">
            22 -72 rlineto
            6 25 19 3 18 hhcurveto
            39 31 -16 -34 22 hvcurveto
            57 -86 -1 -1 -91 55 rlineto
            23 -38 -37 11 -38 hhcurveto
            -46 -34 -16 -21 -32 hvcurveto
            38 -69 rlineto
            19 35 26 9 34 hhcurveto
            23 25 -4 -10 23 hvcurveto
            147 -62 31 35 rlineto
            return
          </CharString>
          <CharString index="21">
            -5 -61 callgsubr
            return
          </CharString>
          <CharString index="22">
            rmoveto
            31 355 callgsubr
            -21 -21 -31 -32 21 236 callsubr
            32 vhcurveto
            185 hmoveto
            31 -21 235 callsubr
            -31 -32 354 callsubr
            21 21 32 vhcurveto
            return
          </CharString>
          <CharString index="23">
            1 13 24 3 25 hhcurveto
            87 30 -37 -75 -88 -40 -38 -57 -1 hvcurveto
            -3 -290 rmoveto
            42 vlineto
            -60 11 295 callsubr
            6 13 vvcurveto
            173 84 vlineto
            16 -17 15 -29 15 -34 37 -84 rcurveline
            -50 23 16 -33 22 hhcurveto
            126 42 hlineto
            -38 9 -15 4 -7 4 -8 18 rlinecurve
            -50 99 -21 43 -21 26 -32 18 rlinecurve
            54 14 69 33 112 vvcurveto
            105 -59 46 -151 vhcurveto
            return
          </CharString>
          <CharString index="24">
            -42 vlineto
            48 -7 -89 callsubr
            return
          </CharString>
          <CharString index="25">
            rmoveto
            -107 callsubr
            return
          </CharString>
          <CharString index="26">
            25 -1 22 -10 -25 vvcurveto
            -26 -27 -22 -49 -4 vhcurveto
            5 -35 rlineto
            -1 6 4 0 8 hhcurveto
            76 58 37 55 38 -26 24 -37 3 hvcurveto
            1 -6 -5 0 -4 hhcurveto
            return
          </CharString>
          <CharString index="27">
            49 vlineto
            71 28 19 58 vhcurveto
            19 1 32 -5 27 -6 20 58 rcurveline
            19 -30 -33 14 -34 hhcurveto
            -88 -89 -91 -108 -2 hvcurveto
            -1 -21 -69 -10 -66 callsubr
            vlineto
            return
          </CharString>
          <CharString index="28">
            215 callgsubr
            157 96 -44 96 hintmask 1110101001010000
            -40 callsubr
            hintmask 1111001010100000
            72 callgsubr
            hintmask 1110011010100000
            69 vlineto
            hintmask 1111001010100000
            89 callsubr
            hintmask 1110101010100000
            33 callsubr
            hintmask 1110101001100000
            88 callsubr
            hintmask 1110101100100000
            90 callgsubr
            hintmask 1110101001010000
            108 callgsubr
            hintmask 1110101100010000
            -23 callsubr
            hintmask 1110101001010000
            -63 -48 -31 -74 vhcurveto
            hintmask 1110101010100000
            -9 callsubr
            return
          </CharString>
          <CharString index="29">
            -20 hstemhm
            8 213 74 160 hintmask 01101111
            17 -129 rmoveto
            -51 vlineto
            hintmask 10101111
            -5 29 32 -3 29 hhcurveto
            85 48 55 120 42 hvcurveto
            122 357 4 12 7 5 11 3 rlinecurve
            29 9 rlineto
            41 -160 -42 vlineto
            hintmask 01110111
            56 -11 -90 -283 -100 283 rlineto
            hintmask 01101111
            60 11 rlineto
            41 vlineto
            -213 1 rlineto
            -41 vlineto
            30 -9 11 -3 7 -6 4 -10 rlinecurve
            131 -345 rlineto
            43 hlineto
            -44 -98 -59 -19 -114 -12 rrcurveto
            return
          </CharString>
          <CharString index="30">
            61 -48 47 -45 -51 vvcurveto
            -44 -34 -36 -56 -62 -70 44 80 -59 174 callsubr
            90 -63 99 hhcurveto
            91 58 53 76 return
          </CharString>
          <CharString index="31">
            -37 -40 26 -60 hhcurveto
            -29 -32 -8 -8 -22 hvcurveto
            21 -72 rlineto
            6 26 19 3 17 hhcurveto
            40 31 -16 -38 24 hvcurveto
            54 -80 -2 -2 -89 54 rlineto
            23 -39 -36 11 -39 hhcurveto
            -46 -33 -16 -21 -32 hvcurveto
            38 -69 rlineto
            18 33 28 11 33 hhcurveto
            23 26 -5 -13 29 hvcurveto
            151 -64 rlineto
            return
          </CharString>
          <CharString index="32">
            165 callgsubr
            -71 14 callsubr
            23 -27 -42 return
          </CharString>
          <CharString index="33">
            -14 13 -45 -1 -63 -7 -45 -14 rlinecurve
            -39 vlineto
            52 -7 313 callgsubr
            -7 -13 vvcurveto
            -494 128 callsubr
            -50 -7 rlineto
            -42 233 42 vlineto
            -50 7 353 callgsubr
            7 13 vvcurveto
            return
          </CharString>
          <CharString index="34">
            -20 hstemhm
            8 192 304 155 hintmask 01011110
            167 -6 rmoveto
            80 hlineto
            87 311 93 -311 rlineto
            79 hlineto
            107 352 3 11 7 5 11 3 rlinecurve
            25 8 rlineto
            41 -155 -42 vlineto
            hintmask 10101110
            55 -11 -75 -271 rlineto
            hintmask 10011110
            -89 324 rlineto
            -83 hlineto
            -89 -325 rlineto
            hintmask 01101110
            -77 272 rlineto
            hintmask 01011110
            54 11 rlineto
            42 -192 -41 vlineto
            25 -8 10 -3 6 -4 4 -11 rlinecurve
            return
          </CharString>
          <CharString index="35">
            354 callgsubr
            vstem
            -100 callsubr
            return
          </CharString>
          <CharString index="36">
            rmoveto
            -45 91 callgsubr
            -83 callsubr
            -293 vlineto
            -100 -22 -41 -87 -51 vhcurveto
            20 -42 46 15 46 17 34 28 rlinecurve
            42 35 16 42 99 vvcurveto
            369 vlineto
            return
          </CharString>
          <CharString index="37">
            hhcurveto
            -43 -26 23 29 -10 hvcurveto
            67 21 48 45 60 vvcurveto
            43 -26 38 -23 21 vhcurveto
            30 -30 -36 15 -36 75 callsubr
            20 hhcurveto
            24 15 -15 -25 -34 -28 -31 -52 -22 hvcurveto
            -8 -21 -21 -5 -21 hhcurveto
            return
          </CharString>
          <CharString index="38">
            58 -31 30 -38 -33 -24 -24 -32 -26 15 -15 14 -9 vhcurveto
            12 -7 9 -3 -19 vvcurveto
            -33 -28 -34 -34 -28 vhcurveto
            20 -26 rlineto
            65 34 53 62 72 vvcurveto
            return
          </CharString>
          <CharString index="39">
            -35 callgsubr
            -2 vhcurveto
            return
          </CharString>
          <CharString index="40">
            150 callgsubr
            -37 28 72 -15 hvcurveto
            -10 27 27 -4 27 hhcurveto
            98 64 54 77 54 -32 47 -53 29 hvcurveto
            hintmask 11111000
            36 26 19 35 37 vvcurveto
            45 -28 42 -33 27 vhcurveto
            28 -34 -40 13 -41 hhcurveto
            -38 -41 -11 -25 -34 hvcurveto
            44 -68 rlineto
            11 hlineto
            20 24 39 17 33 hhcurveto
            36 25 -19 -36 -48 -49 -45 -97 -14 hvcurveto
            -7 -8 29 -63 rlineto
            hintmask 11110100
            39 3 34 8 28 11 rrcurveto
            34 -21 14 -29 -29 vvcurveto
            -51 -43 -39 -67 -16 -20 2 7 -19 vhcurveto
            72 -6 -17 27 -30 hhcurveto
            -9 -13 140 callsubr
            63 -25 vhcurveto
            -119 9 56 -77 94 hhcurveto
            28 146 callsubr
          </CharString>
          <CharString index="41">
            rlineto
            -40 vlineto
            68 -9 rlineto
            -284 vlineto
            -12 -35 callsubr
            return
          </CharString>
          <CharString index="42">
            177 410 rmoveto
            -15 13 -41 -1 -51 -7 -41 -12 309 callsubr
            13 -2 5 -8 -14 vvcurveto
            -259 vlineto
            -13 -6 -7 261 callgsubr
            246 42 vlineto
            -69 7 rlineto
            -13 335 callsubr
            return
          </CharString>
          <CharString index="43">
            rmoveto
            -29 -15 238 callgsubr
            53 hvcurveto
            3 2 0 3 hhcurveto
            12 -16 5 -20 -17 vvcurveto
            -46 -33 -27 -31 vhcurveto
            return
          </CharString>
          <CharString index="44">
            -35 74 rlineto
            -11 141 callsubr
            -6 -90 callsubr
            return
          </CharString>
          <CharString index="45">
            65 81 70 318 -20 hstem
            24 78 259 81 vstem
            527 84 rmoveto
            -53 53 -11 -2 rlineto
            -49 -37 -70 -40 -80 hhcurveto
            -109 -65 71 92 46 15 45 25 36 hvcurveto
            -2 11 -78 21 rlineto
            -26 -42 -12 -45 -42 vvcurveto
            -81 45 -66 52 -43 vhcurveto
            -41 51 62 -27 77 hhcurveto
            92 81 41 62 43 hvcurveto
            -85 145 rmoveto
            63 -52 37 -36 28 vhcurveto
            -5 5 -7 6 7 vvcurveto
            6 6 8 13 14 vhcurveto
            61 63 -63 49 rlineto
            -12 hlineto
            -57 -67 rlineto
            -20 -24 -9 -18 -14 vvcurveto
            -19 13 -13 20 -17 vhcurveto
            30 -27 37 -32 -38 vvcurveto
            -28 -22 -21 -33 -42 -48 32 58 -42 vhcurveto
            -33 -25 rlineto
            -85 45 66 -50 75 hhcurveto
            70 45 43 59 hvcurveto
            return
          </CharString>
          <CharString index="46">
            -8 59 -58 55.5 329.5 47 -7 -20 243 294 callsubr
            38 102 178 95 hintmask 10100111
            236 51 rmoveto
            -55 -41 38 120 130 48 39 63 26 25 -7 -8 16 hvcurveto
            -285 vlineto
            -16 -22 -30 -11 -30 hhcurveto
            -35 -59 rmoveto
            54 40 22 32 28 hvcurveto
            -32 11 23 -21 40 hhcurveto
            26 34 9 5 16 hvcurveto
            hintmask 01101011
            39 vlineto
            -40 5 rlineto
            -12 1 -8 5 17 vvcurveto
            567 vlineto
            hintmask 10010111
            -13 13 -45 -1 -63 -7 -46 -14 rlinecurve
            -39 vlineto
            53 -7 313 callgsubr
            -7 -13 vvcurveto
            -146 vlineto
            hintmask 10100111
            4 -19 -24 3 -24 hhcurveto
            -131 -82 -76 -153 -144 72 -60 91 hvcurveto
            return
          </CharString>
          <CharString index="47">
            8 -21 -14 callsubr
            return
          </CharString>
          <CharString index="48">
            -22 -33 -36 -25 -47 -15 rrcurveto
            35 -11 -18 21 -25 hhcurveto
            -20 -15 -14 -19 -11 hvcurveto
            -7 -12 rlineto
            -10 -17 -5 -15 -14 vvcurveto
            -29 25 -17 50 7 8 0 1 7 vhcurveto
            -80 27 59 -49 85 hhcurveto
            31 32 6 11 24 hvcurveto
            5 10 -27 70 rlineto
            -12 -28 -30 -9 -29 hhcurveto
            -41 -39 18 44 -23 hvcurveto
            92 25 92 72 100 vvcurveto
            56 -29 52 -43 35 vhcurveto
            27 -33 -41 19 -45 hhcurveto
            -67 -51 -44 -60 -1 hvcurveto
            -212 -105 rlineto
            -36 29 -18 26 24 callsubr
            -48 38 -43 54 -36 hvcurveto
            -85 -42 rlineto
            -11 vlineto
            46 -60 113 57 rlineto
            return
          </CharString>
          <CharString index="49">
            38 39 19 53 -76 callgsubr
            -11 hhcurveto
            -73 -58 -44 -64 return
          </CharString>
          <CharString index="50">
            -12 72 109 67 278 -20 hstem
            80 77 160 79 vstem
            402 243 rmoveto
            17 -10 16 -28 17 vhcurveto
            -10 7 rlineto
            14 -22 -19 9 -18 hhcurveto
            -22 -18 -14 -25 -13 4 -13 7 -16 hvcurveto
            -4 -10 -10 -2 -11 hhcurveto
            -46 -32 36 49 72 63 38 79 9 hvcurveto
            7 9 -35 65 rlineto
            -106 -5 -85 -61 -90 vvcurveto
            -49 26 -46 36 -34 vhcurveto
            -34 35 49 -26 53 hhcurveto
            8 8 1 1 8 hvcurveto
            9 -15 5 -15 -15 vvcurveto
            -43 -38 -23 -50 -72 -62 48 75 -48 vhcurveto
            -34 -26 rlineto
            -104 52 89 -65 99 hhcurveto
            77 66 39 67 34 -17 31 -28 25 hvcurveto
            30 14 21 22 23 vvcurveto
            endchar
          </CharString>
          <CharString index="51">
            -12 -2 vhcurveto
            -43 -7 rlineto
            -42 return
          </CharString>
          <CharString index="52">
            rmoveto
            50 -34 38 -64 -56 -50 -34 -52 vhcurveto
            -54 -1 36 -36 66 hhcurveto
            56 47 34 54 hvcurveto
            -146 1 rmoveto
            28 16 17 29 30 13 -22 -26 -29 -15 -16 -28 -31 -14 23 25 vhcurveto
            endchar
          </CharString>
          <CharString index="53">
            274 hmoveto
            42 vlineto
            -64 8 rlineto
            -13 11 callgsubr
            203 -286 vlineto
            -12 -35 callsubr
            242 42 vlineto
            -67 8 rlineto
            -12 11 callgsubr
            124 57 -124 69 vlineto
            68 45 23 58 31 35 -5 -12 34 vhcurveto
            return
          </CharString>
          <CharString index="54">
            5 10 -28 72 rlineto
            -11 -24 -29 -7 -24 hhcurveto
            -44 -48 19 71 -21 hvcurveto
            return
          </CharString>
          <CharString index="55">
            hhcurveto
            57 17 -34 -76 hvcurveto
            -180 vlineto
            -13 -7 -6 -11 -3 vhcurveto
            -35 -7 rlineto
            -42 return
          </CharString>
          <CharString index="56">
            39 -8 58 -57 55.5 374.5 -20 return
          </CharString>
          <CharString index="57">
            450 hmoveto
            9 51 5 73 -1 50 -54 6 rcurveline
            -32 -99 -4 -12 -6 77 callgsubr
            -27 -2 -32 hhcurveto
            -132 hlineto
            315 482 -18 37 rlineto
            -376 hlineto
            return
          </CharString>
          <CharString index="58">
            vlineto
            -12 -6 -8 return
          </CharString>
          <CharString index="59">
            124 rmoveto
            -85 79 -49 110 116 80 55 87 72 -54 37 -64 32 vhcurveto
            hintmask 11011000
            55 21 40 45 54 vvcurveto
            70 -68 48 -97 -102 -69 -54 -80 -57 36 -37 43 -28 vhcurveto
            hintmask 11100100
            -65 -21 -40 -50 -60 vvcurveto
            hintmask 11011000
            114 275 rmoveto
            39 29 28 49 49 34 -29 -52 -33 -16 -33 -37 -24 vhcurveto
            -60 29 -48 25 50 vvcurveto
            hintmask 11100100
            81 -362 rmoveto
            -56 -49 31 64 40 19 36 38 24 hvcurveto
            7 -4 7 -3 6 -3 rrcurveto
            63 -30 55 -23 -56 vvcurveto
            -44 -34 -32 -56 vhcurveto
            endchar
          </CharString>
          <CharString index="60">
            282 vlineto
            12 5 7 12 3 vhcurveto
            43 11 rlineto
            43 return
          </CharString>
          <CharString index="61">
            338 rmoveto
            49 -28 47 -40 32 vhcurveto
            26 -31 -43 19 -50 hhcurveto
            -47 -44 -18 -27 -30 hvcurveto
            50 -71 rlineto
            11 hlineto
            27 30 39 20 38 hhcurveto
            43 26 -24 -42 -51 -48 -54 -80 -18 hvcurveto
            49 310 callgsubr
            -17 -14 -23 -14 hvcurveto
            -7 -10 rlineto
            -13 -22 -7 -18 -15 vvcurveto
            -34 35 -15 51 vhcurveto
            4 3 0 4 hhcurveto
            -109 16 61 -70 94 hhcurveto
            28 34 7 12 32 hvcurveto
            5 10 -29 74 rlineto
            -11 -22 -33 -9 -29 hhcurveto
            -42 -51 23 78 -22 hvcurveto
            96 18 97 62 86 vvcurveto
            endchar
          </CharString>
          <CharString index="62">
            -11 59 63 131 callsubr
            106 84 hintmask 11011110
            535 328 rmoveto
            hintmask 11101110
            -25 callgsubr
            hintmask 11011110
            -37 callgsubr
            hintmask 11101110
            103 callgsubr
            return
          </CharString>
          <CharString index="63">
            -36 hlineto
            -14 -13 -1 -2 -12 hvcurveto
            -24 18 -16 22 26 vvcurveto
            22 11 21 21 16 vhcurveto
            13 vlineto
            -77 33 rlineto
            -26 -27 -11 -25 -29 vvcurveto
            -43 28 -37 45 -25 vhcurveto
            return
          </CharString>
          <CharString index="64">
            521 -3 rmoveto
            92 hlineto
            143 497 4 12 6 5 11 2 rlinecurve
            47 12 rlineto
            43 -194 -43 vlineto
            70 -14 rlineto
            return
          </CharString>
          <CharString index="65">
            68 388 68 hstem
            29 79 199 78 vstem
            447 71 rmoveto
            -51 65 rlineto
            -12 hlineto
            -50 -45 -66 -30 -66 hhcurveto
            -61 -38 27 44 51 54 21 77 30 hvcurveto
            53 21 93 36 78 vvcurveto
            37 -21 39 -34 27 vhcurveto
            26 -30 -41 19 -55 hhcurveto
            -44 -53 -13 -28 -41 hvcurveto
            41 -78 rlineto
            10 hlineto
            29 40 46 22 45 hhcurveto
            38 21 -15 -30 -51 -63 -24 -59 -23 hvcurveto
            -83 -32 -73 -33 -77 vvcurveto
            -44 24 -40 38 -31 vhcurveto
            -34 39 49 -22 69 hhcurveto
            73 76 27 56 50 hvcurveto
            return
          </CharString>
          <CharString index="66">
            164 callgsubr
            -21 hhcurveto
            -45 -40 29 74 -14 hvcurveto
            -13 31 38 -6 28 hhcurveto
            96 60 51 68 46 -28 48 -63 44 hvcurveto
            88 46 rlineto
            11 vlineto
            -47 59 -114 -59 rlineto
            -38 30 -11 22 20 20 callgsubr
            -46 34 -38 56 -39 hvcurveto
            -77 -40 rlineto
            -11 vlineto
            46 -59 105 54 rlineto
            40 -33 11 -31 -24 273 callsubr
            -55 vhcurveto
            return
          </CharString>
          <CharString index="67">
            443 -41 rmoveto
            70 -48 37 -92 vhcurveto
            -85 hlineto
            -57 -23 10 28 14 6 13 11 10 hvcurveto
            -4 17 19 -2 21 hhcurveto
            return
          </CharString>
          <CharString index="68">
            hhcurveto
            -29 -14 15 22 26 20 22 42 22 hvcurveto
            22 11 -33 59 rlineto
            -10 -27 -32 -7 -28 hhcurveto
            -27 -25 6 9 -20 hvcurveto
            65 37 35 37 49 vvcurveto
            41 -25 38 -31 25 vhcurveto
            22 -26 -34 16 -35 hhcurveto
            -63 -48 -48 -70 -42 17 -42 29 -35 hvcurveto
            -29 -12 -31 -13 -34 -13 35 -70 rcurveline
            46 19 42 17 35 17 26 -16 30 -11 32 -5 rrcurveto
            -3 vlineto
            -130 -63 36 -66 98 54 6 -22 14 -22 19 -18 rlinecurve
            -24 27 34 -15 37 hhcurveto
            return
          </CharString>
          <CharString index="69">
            rmoveto
            -59 -53 32 -42 67 -56 64 -39 rlinecurve
            29 32 rlineto
            endchar
          </CharString>
          <CharString index="70">
            73 -7 -18 24 -25 hhcurveto
            -8 -14 140 callsubr
            64 -25 vhcurveto
            -119 8 56 -77 95 hhcurveto
            return
          </CharString>
          <CharString index="71">
            -199 0 -59 callgsubr
            377.5 -20 return
          </CharString>
          <CharString index="72">
            -7 -7 -56 callsubr
            return
          </CharString>
          <CharString index="73">
            -15 13 -22 -4 -29 -9 -28 -12 rlinecurve
            15 -30 -33 10 -28 hhcurveto
            -97 -109 -95 -109 hvcurveto
            -36 vlineto
            -69 -11 82 callsubr
          </CharString>
          <CharString index="74">
            30 0 50 348 171 -47 47 hstemhm
            23 441 hintmask 10110000
            -50 callsubr
            hintmask 11010000
            -9 -54 -4 -62 3 -55 rrcurveto
            55 hlineto
            hintmask 10110000
            9 callgsubr
            return
          </CharString>
          <CharString index="75">
            -12 rmoveto
            64 42 59 74 69 -32 63 -41 53 hvcurveto
            hintmask 11011000
            153 143 -53 61 rlineto
            -10 hlineto
            -144 -141 rlineto
            hintmask 10111000
            -55 57 -68 52 -68 35 -51 -66 rcurveline
            2 -10 82 -29 67 -38 49 -42 rlinecurve
            -65 -66 -28 -52 -53 vvcurveto
            -50 24 -39 28 -29 vhcurveto
            -28 27 38 -23 39 hhcurveto
            29 162 rmoveto
            -60 -28 -32 -34 -36 -12 34 33 50 27 47 45 44 vhcurveto
            25 -36 13 -39 -41 vvcurveto
            endchar
          </CharString>
          <CharString index="76">
            -50 -34 -5 -42 hhcurveto
            -125 -43 hlineto
            58 -12 rlineto
            12 -2 189 callsubr
            -417 vlineto
            -13 -6 -7 58 callgsubr
            vlineto
            return
          </CharString>
          <CharString index="77">
            -37 -33 50 -55 hhcurveto
            -53 -38 -48 -48 -13 hvcurveto
            31 -17 rlineto
            22 15 19 24 26 hhcurveto
            return
          </CharString>
          <CharString index="78">
            7 rlineto
            -12 335 callsubr
            return
          </CharString>
          <CharString index="79">
            -31 -25 11 8 -12 hvcurveto
            -10 6 -3 7 -5 16 -14 55 rcurveline
            -50 hlineto
            -5 -34 -2 -41 5 -39 rrcurveto
            return
          </CharString>
          <CharString index="80">
            -58 -11 rlineto
            -42 return
          </CharString>
          <CharString index="81">
            26 110 3 12 5 6 11 4 rlinecurve
            4 13 26 3 28 hhcurveto
            39 -445 hlineto
            -13 -7 -6 -12 -2 vhcurveto
            -86 -14 rlineto
            -42 vlineto
            return
          </CharString>
          <CharString index="82">
            7 -4 callgsubr
            return
          </CharString>
          <CharString index="83">
            226 callgsubr
            -25 -23 291 callgsubr
            37 189 callgsubr
          </CharString>
          <CharString index="84">
            -78 -24 35 48 30 10 22 14 17 hvcurveto
            -1 12 13 -1 14 hhcurveto
            88 hlineto
            57 16 -20 -36 hvcurveto
            return
          </CharString>
          <CharString index="85">
            74 14 rlineto
            43 -228 -43 vlineto
            36 -12 10 -3 6 -6 4 -10 rlinecurve
            15 -44 -103 -359 rlineto
            return
          </CharString>
          <CharString index="86">
            -53 -52 -62 27 -27 callgsubr
            return
          </CharString>
          <CharString index="87">
            hhcurveto
            -54 -24 26 33 49 56 22 67 -1 hvcurveto
            30 hlineto
            7 8 -21 64 rlineto
            -42 hlineto
            -27 -26 -3 -6 -23 hvcurveto
            -13 15 -6 16 15 vvcurveto
            36 35 23 59 vhcurveto
            19 hlineto
            7 7 -22 62 rlineto
            1 -12 -15 2 -11 hhcurveto
            -89 -51 -50 -53 -34 22 -32 35 -24 hvcurveto
            -35 -18 -22 -28 -38 vvcurveto
            -43 28 -40 32 -26 vhcurveto
            31 -26 42 -19 44 -4 rrcurveto
            -1 vlineto
            -105 -96 57 -56 return
          </CharString>
          <CharString index="88">
            271 151 callsubr
            hvcurveto
            hintmask 11010100
            55 -49 31 -58 vhcurveto
            hintmask 11011000
            -18 callsubr
            hvcurveto
            hintmask 10111000
            -35 -30 -24 -59 vhcurveto
            -12 -41 hlineto
            hintmask 10110100
            76 callsubr
            endchar
          </CharString>
          <CharString index="89">
            42 7 41 31 47 vvcurveto
            53 -53 35 -69 -50 -52 -19 -45 -19 vhcurveto
            18 -20 rlineto
            23 25 28 9 28 hhcurveto
            38 29 -17 -35 return
          </CharString>
          <CharString index="90">
            rmoveto
            -60 -45 29 56 51 38 55 72 18 hvcurveto
            3 -1 3 -2 3 -1 rrcurveto
            50 -23 67 -23 -57 vvcurveto
            -50 -50 -52 -81 vhcurveto
            return
          </CharString>
          <CharString index="91">
            82 110 rmoveto
            -92 49 -25 66 59 50 24 48 23 vhcurveto
            -23 23 rlineto
            -19 -19 -26 -9 -27 hhcurveto
            -36 -20 16 60 hvcurveto
            222 128 56 -129 vlineto
            -2 127 rlineto
            -54 hlineto
            return
          </CharString>
          <CharString index="92">
            36 -11 31 -26 0 callgsubr
            -25 hvcurveto
            return
          </CharString>
          <CharString index="93">
            64 1 callgsubr
            return
          </CharString>
          <CharString index="94">
            -10 rmoveto
            115 73 77 103 90 -58 65 -94 -48 -48 -16 -29 -27 hvcurveto
            106 13 59 68 90 hhcurveto
            20 25 -4 -10 25 hvcurveto
            15 43 rlineto
            19 -29 -40 9 -41 hhcurveto
            -146 -98 -119 -171 -149 77 -82 117 hvcurveto
            6 48 rmoveto
            -63 -33 67 101 hvcurveto
            28 vlineto
            6 vlineto
            18 24 38 9 27 hhcurveto
            56 35 -43 -71 -68 -31 -47 -53 hvcurveto
            endchar
          </CharString>
          <CharString index="95">
            292 hmoveto
            42 vlineto
            -60 11 295 callsubr
            6 13 vvcurveto
            116 vlineto
            72 81 14 -22 15 -25 19 -37 rlinecurve
            58 -109 rlineto
            -48 25 19 -30 18 hhcurveto
            130 42 hlineto
            -38 10 -17 4 -6 8 -10 15 rlinecurve
            -87 150 -30 52 -20 33 -26 29 rlinecurve
            141 158 7 7 7 3 10 2 rlinecurve
            53 12 rlineto
            43 -206 vlineto
            1 -43 rlineto
            return
          </CharString>
          <CharString index="96">
            hhcurveto
            -38 -31 18 43 -15 hvcurveto
            66 14 49 45 60 vvcurveto
            44 -27 36 -23 21 vhcurveto
            30 -30 -36 15 -37 14 callgsubr
            24 14 -14 -26 -50 -57 -34 -52 -54 -31 38 46 -27 hvcurveto
            43 -26 -36 67 -89 hhcurveto
            -83 -57 -58 -74 -84 75 -31 53 -19 hvcurveto
            40 -13 34 -9 20 -20 rrcurveto
            return
          </CharString>
          <CharString index="97">
            rmoveto
            -49 -64 45 -35 88 -36 68 -26 rlinecurve
            20 37 rlineto
            return
          </CharString>
          <CharString index="98">
            -84 436 rmoveto
            76 32 23 44 54 24 -30 -72 -70 -24 -30 -50 -55 -25 34 69 vhcurveto
            return
          </CharString>
          <CharString index="99">
            hhcurveto
            -50 -25 27 36 54 56 25 67 hvcurveto
            30 hlineto
            7 7 -21 64 rlineto
            -42 hlineto
            -26 -25 -3 -6 -23 hvcurveto
            -14 17 -7 18 17 vvcurveto
            38 35 24 59 vhcurveto
            19 hlineto
            7 7 -22 62 rlineto
            1 -12 -15 2 -11 hhcurveto
            -89 -51 -50 -57 -37 24 -33 36 -24 hvcurveto
            -36 -20 -24 -31 -43 vvcurveto
            -43 25 -39 36 -30 vhcurveto
            -30 34 44 -20 51 hhcurveto
            return
          </CharString>
          <CharString index="100">
            50 -29 48 -39 31 vhcurveto
            26 -30 -41 19 -48 hhcurveto
            -45 -43 -18 -27 -31 hvcurveto
            51 -70 rlineto
            11 hlineto
            28 29 38 19 35 hhcurveto
            43 22 -30 -40 -51 -37 -56 -78 -24 hvcurveto
            46 310 callgsubr
            -17 -14 -22 -15 hvcurveto
            -6 -11 rlineto
            -13 -21 -7 -19 -14 vvcurveto
            -34 36 -15 47 5 6 0 1 5 vhcurveto
            -103 15 60 -64 92 hhcurveto
            return
          </CharString>
          <CharString index="101">
            42 -23 37 -26 24 vhcurveto
            29 -30 -37 14 -35 hhcurveto
            -64 -52 -47 -63 -51 34 -46 53 -35 hvcurveto
            -39 -21 -44 -20 -45 -18 38 -71 rcurveline
            70 30 60 29 45 31 45 -16 50 -8 49 -1 rrcurveto
            -1 vlineto
            -174 -100 rlineto
            -47 -27 -16 -23 -26 vvcurveto
            -26 20 -19 32 -10 vhcurveto
            9 -3 rlineto
            -4 11 24 -4 15 hhcurveto
            30 19 18 25 return
          </CharString>
          <CharString index="102">
            -28 -5 -27 -7 -24 -11 rrcurveto
            -16 18 -6 20 14 vvcurveto
            29 26 12 38 15 vhcurveto
            39 16 48 18 47 vvcurveto
            30 -16 25 -21 21 vhcurveto
            28 -26 -28 12 -33 hhcurveto
            -23 -28 -7 -14 -23 hvcurveto
            37 -72 rlineto
            17 25 26 12 21 hhcurveto
            17 7 -9 -10 -24 -40 -14 -37 -14 hvcurveto
            -41 -15 -50 -25 -53 vvcurveto
            -39 27 -35 38 -23 vhcurveto
            return
          </CharString>
          <CharString index="103">
            hhcurveto
            -39 -32 21 33 -13 hvcurveto
            90 26 59 52 73 vvcurveto
            38 -19 39 -32 29 vhcurveto
            21 -25 -35 19 -38 hhcurveto
            -57 -44 -39 -51 -49 41 -35 45 -11 hvcurveto
            20 28 rlineto
            -17 12 -9 15 18 vvcurveto
            29 23 18 26 28 18 -19 -29 -54 -59 -46 -80 -20 vhcurveto
            -15 -33 12 -31 20 -31 18 -22 rlinecurve
            -49 42 47 -20 55 hhcurveto
            return
          </CharString>
          <CharString index="104">
            -74 148 rlineto
            71 -35 -45 27 -60 hhcurveto
            -31 -30 -8 -8 -23 hvcurveto
            return
          </CharString>
          <CharString index="105">
            -25 20 23 -9 20 -99 callsubr
            return
          </CharString>
          <CharString index="106">
            0 -59 callgsubr
            315.5 62 return
          </CharString>
          <CharString index="107">
            67 62 54 vlineto
            -62 -3 rlineto
            87 -55 vlineto
            -13 -91 -118 -6 43 38 41 55 74 140 rlinecurve
            -12 14 rlineto
            -67 hlineto
            -41 -85 -47 -87 -57 -85 rrcurveto
            endchar
          </CharString>
          <CharString index="108">
            228 rmoveto
            -17 callgsubr
            hintmask 11110000
            59 -45 50 -82 -72 -43 -39 -39 -12 vhcurveto
            hintmask 11010000
            19 -18 rlineto
            hintmask 11110000
            22 20 30 20 35 hhcurveto
            44 24 -26 -41 -62 -60 -53 -118 -87 hvcurveto
            endchar
          </CharString>
          <CharString index="109">
            44 22 rmoveto
            -15 35 53 -17 59 hhcurveto
            99 70 44 80 77 -63 31 -68 27 hvcurveto
            return
          </CharString>
          <CharString index="110">
            -99 -89 -36 -109 -78 51 -97 86 -77 hvcurveto
            37 30 rlineto
            -57 74 -27 68 55 vvcurveto
            68 36 24 103 1 vhcurveto
            19 43 0 -2 35 hvcurveto
            -130 -102 rlineto
            -25 -20 -15 -18 -23 vvcurveto
            -20 14 -19 29 -8 vhcurveto
            12 -3 rlineto
            -5 19 20 -3 13 hhcurveto
            29 16 17 22 15 -5 11 -10 13 hvcurveto
            -14 19 return
          </CharString>
          <CharString index="111">
            415 117 rmoveto
            76 -56 47 -69 56 vhcurveto
            118 callgsubr
            41 71 25 73 hhcurveto
            59 14 -14 -58 hvcurveto
            -112 vlineto
            -5 -4 0 -4 hhcurveto
            -40 -17 -20 -24 -22 12 -17 23 -23 hvcurveto
            19 -21 rlineto
            -25 24 15 -9 20 hhcurveto
            25 19 19 33 hvcurveto
            39 vlineto
            return
          </CharString>
          <CharString index="112">
            415 117 rmoveto
            76 -56 47 -69 56 vhcurveto
            -1 callgsubr
            43 38 64 26 66 hhcurveto
            49 12 -14 -58 hvcurveto
            -112 vlineto
            -5 -4 0 -4 hhcurveto
            -40 -18 -20 -24 -22 13 -17 22 -23 hvcurveto
            20 -21 rlineto
            -25 24 15 -9 19 hhcurveto
            26 19 19 33 hvcurveto
            39 vlineto
            return
          </CharString>
          <CharString index="113">
            53 -27 27 -34 -30 -21 -21 -29 -23 14 -14 12 -8 vhcurveto
            11 -7 8 -2 -17 vvcurveto
            -30 -26 -30 -30 -25 vhcurveto
            18 -23 rlineto
            58 30 47 55 64 vvcurveto
            return
          </CharString>
          <CharString index="114">
            -52 27 -28 34 30 21 21 29 23 -13 14 -13 8 vhcurveto
            -11 7 -7 3 17 vvcurveto
            28 25 31 30 25 vhcurveto
            -18 23 rlineto
            -58 -30 -47 -55 -64 vvcurveto
            return
          </CharString>
          <CharString index="115">
            7 27 hhcurveto
            56 26 -34 -49 -57 -37 -53 -65 -35 hvcurveto
            -4 -11 49 -61 rlineto
            83 40 51 65 75 vvcurveto
            return
          </CharString>
          <CharString index="116">
            140 347 rmoveto
            -78 21 rlineto
            -26 -42 -12 -44 -42 vvcurveto
            -80 43 -67 54 -44 vhcurveto
            -40 51 63 -28 76 hhcurveto
            90 80 40 59 42 hvcurveto
            -52 53 -12 -1 rlineto
            -47 -35 -68 -39 -80 hhcurveto
            -109 -65 71 93 44 15 46 25 36 hvcurveto
            461 57 rmoveto
            -39 -39 -32 -53 -14 vhcurveto
            -15 -40 rlineto
            return
          </CharString>
          <CharString index="117">
            293 callsubr
            -24 -23 -35 -34 24 -23 36 37 189 callgsubr
          </CharString>
          <CharString index="118">
            436 rmoveto
            -105 -100 -88 -159 -15 -159 15 -18 rcurveline
            89 hlineto
            hintmask 10011000
            14 193 65 139 90 115 rrcurveto
            hintmask 10101000
            -24 54 rlineto
            -330 hlineto
            hintmask 11001000
            -8 -52 -4 -62 3 -59 rrcurveto
            51 hlineto
            hintmask 10101000
            27 81 4 14 7 4 14 3 rlinecurve
            4 18 31 2 37 hhcurveto
            endchar
          </CharString>
          <CharString index="119">
            170 -311 rmoveto
            18 -10 17 -20 16 246 callsubr
            14 -18 -16 7 -16 hhcurveto
            -21 -19 -15 -29 -12 2 -13 3 -15 hvcurveto
            -4 -9 -10 -3 -12 hhcurveto
            -37 -24 24 36 48 42 38 78 33 hvcurveto
            -19 48 52 -10 46 hhcurveto
            24 26 3 6 24 hvcurveto
            1 -3 -113 -118 67 -62 return
          </CharString>
          <CharString index="120">
            509 7 rmoveto
            229 vlineto
            42 6 rlineto
            48 -228 -48 vlineto
            89 -7 rlineto
            return
          </CharString>
          <CharString index="121">
            rlineto
            11 hlineto
            27 28 38 21 38 hhcurveto
            43 return
          </CharString>
          <CharString index="122">
            95 0 42 129 50 265 84 0 -20 return
          </CharString>
          <CharString index="123">
            -41 -26 -26 -38 -48 vvcurveto
            -50 27 -43 38 -31 vhcurveto
            -30 36 52 -23 63 hhcurveto
            159 113 143 164 130 -70 87 -82 -62 -51 -49 -70 -79 63 -65 113 -2 hvcurveto
            -113 -30 -86 -80 -105 hhcurveto
            -63 -36 27 50 70 68 35 75 4 hvcurveto
            8 8 -36 67 rlineto
            return
          </CharString>
          <CharString index="124">
            rmoveto
            20 74 8 81 rlineto
            -82 hlineto
            9 -81 19 -74 -54 54 -66 48 -41 -71 75 -33 73 -20 -73 -20 -75 -33 41 -71 66 48 54 54 -19 -74 -9 -82 rlineto
            82 hlineto
            -8 82 -20 74 55 -54 65 -48 41 71 -75 33 -73 20 73 20 75 33 -41 71 -65 -48 rlineto
            endchar
          </CharString>
          <CharString index="125">
            38 -18 39 -33 29 vhcurveto
            21 -24 -35 19 -38 hhcurveto
            -57 -44 -39 -51 -49 40 -35 45 -11 hvcurveto
            21 28 rlineto
            -18 12 -9 15 18 vvcurveto
            29 23 18 27 28 18 -19 -29 -41 -33 -36 -51 -24 vhcurveto
            -17 -39 -31 -6 -25 hhcurveto
            -19 -18 3 10 -17 hvcurveto
            5 15 3 16 17 vvcurveto
            return
          </CharString>
          <CharString index="126">
            hmoveto
            -17 callgsubr
            59 -45 50 -82 -72 -43 -39 -39 -12 vhcurveto
            19 -18 rlineto
            22 20 30 20 35 hhcurveto
            44 24 -26 -41 -62 -60 -53 -118 -87 hvcurveto
            endchar
          </CharString>
          <CharString index="127">
            -23 -20 12 -18 23 -24 hvcurveto
            17 -17 rlineto
            -28 26 17 -9 17 hhcurveto
            27 20 19 34 hvcurveto
            38 return
          </CharString>
          <CharString index="128">
            413 hmoveto
            42 vlineto
            -70 14 295 callsubr
            6 13 vvcurveto
            141 vlineto
            return
          </CharString>
          <CharString index="129">
            79 -61 vhcurveto
            -34 -26 rlineto
            -100 58 86 -52 96 hhcurveto
            return
          </CharString>
          <CharString index="130">
            4 51 0 47 -5 47 rrcurveto
            return
          </CharString>
          <CharString index="131">
            25 vvcurveto
            37 40 17 51 1 vhcurveto
            8 8 -21 213 callsubr
            -64 return
          </CharString>
          <CharString index="132">
            -20 callgsubr
            10 hhcurveto
            7 2 -10 -31 hvcurveto
            -112 vlineto
            -53 21 -44 32 -32 vhcurveto
            -32 33 47 -22 50 hhcurveto
            return
          </CharString>
          <CharString index="133">
            -17 63 rlineto
            2 -11 -12 0 -8 hhcurveto
            -3 hlineto
            -29 -22 -3 -26 hhcurveto
            -13 -13 1 1 -12 hvcurveto
            33 31 18 33 37 vvcurveto
            40 -23 36 -26 25 vhcurveto
            27 -29 -37 17 -38 hhcurveto
            -62 -52 -45 -67 -51 31 -47 51 -35 hvcurveto
            -38 -21 -43 -18 -42 -17 38 -70 rcurveline
            return
          </CharString>
          <CharString index="134">
            vstem
            81 404 rmoveto
            22 26 37 18 36 hhcurveto
            58 22 -46 -60 -88 -47 -54 -62 -38 -37 22 41 -35 hvcurveto
            -32 -27 rlineto
            -60 32 59 -48 78 hhcurveto
            98 64 74 101 64 -23 52 -43 40 hvcurveto
            33 -35 -47 24 -55 hhcurveto
            -43 -38 -13 -21 -30 hvcurveto
            44 -74 rlineto
            return
          </CharString>
          <CharString index="135">
            272 rmoveto
            -31 -41 -16 -35 -41 vvcurveto
            -47 28 -41 39 -32 vhcurveto
            -28 35 42 -19 45 hhcurveto
            55 57 30 59 40 hvcurveto
            -52 57 rlineto
            -10 hlineto
            -53 -41 -40 -27 -41 hhcurveto
            -43 -29 29 45 35 15 32 29 37 hvcurveto
            178 231 -74 53 rlineto
            endchar
          </CharString>
          <CharString index="136">
            hhcurveto
            -27 -25 9 22 -17 hvcurveto
            54 29 44 51 63 vvcurveto
            48 -30 39 -19 18 vhcurveto
            31 -31 return
          </CharString>
          <CharString index="137">
            48 -56 rlineto
            9 hlineto
            29 26 17 17 345 callgsubr
            -3 -2 0 -2 hhcurveto
            -54 -15 -17 -26 -24 13 -17 22 -23 hvcurveto
            20 -21 rlineto
            -23 22 18 -11 20 hhcurveto
            27 18 19 33 hvcurveto
            40 vlineto
            -3 35 54 -4 36 hhcurveto
            return
          </CharString>
          <CharString index="138">
            94 rmoveto
            218 hlineto
            hintmask 10110000
            -94 91 vlineto
            hintmask 01110000
            94 79 63 vlineto
            -79 -3 rlineto
            118 vlineto
            -80 -4 -10 -118 -165 -6 70 65 58 103 94 172 rlinecurve
            -13 22 rlineto
            -88 hlineto
            -61 -129 -67 -121 -72 -115 rrcurveto
            endchar
          </CharString>
          <CharString index="139">
            -180 vlineto
            71 -79 -41 28 -54 hhcurveto
            -38 -44 -17 -38 -43 hvcurveto
            51 -71 rlineto
            158 callsubr
            9 -30 22 -29 vhcurveto
            -25 20 23 -9 21 hhcurveto
            return
          </CharString>
          <CharString index="140">
            24 -29 -42 13 -52 hhcurveto
            -106 -75 -51 -99 -57 25 -43 50 -23 hvcurveto
            return
          </CharString>
          <CharString index="141">
            -3 -201 48 150 69 69 45 170 76 -44 43 -6 -20 return
          </CharString>
          <CharString index="142">
            -34 -18 -21 -28 -37 vvcurveto
            -42 28 -40 32 -26 vhcurveto
            -29 35 46 -20 49 hhcurveto
            2 -2 hlineto
            -69 -53 rlineto
            -34 -26 -13 -21 -21 vvcurveto
            -25 18 -18 28 -7 vhcurveto
            -5 20 21 -4 20 hhcurveto
            34 17 20 21 16 -6 11 -19 20 hvcurveto
            -9 11 return
          </CharString>
          <CharString index="143">
            vstem
            239 40 rmoveto
            -90 93 -30 84 74 vvcurveto
            89 45 62 63 38 17 -26 -47 vhcurveto
            return
          </CharString>
          <CharString index="144">
            -13 20 -15 18 -19 15 rrcurveto
            26 -31 -35 18 -43 hhcurveto
            -38 -38 -13 -22 47 callsubr
            -46 -61 -87 -43 -60 -58 -41 -35 31 44 -26 hvcurveto
            -35 -24 rlineto
            -81 35 63 -42 67 hhcurveto
            return
          </CharString>
          <CharString index="145">
            -12 20 -15 19 -19 15 rrcurveto
            26 -31 -39 17 -42 hhcurveto
            -35 218 callgsubr
            -47 -59 -89 -43 -59 -58 -40 -36 30 45 -26 hvcurveto
            -35 -24 rlineto
            -81 35 63 -42 67 hhcurveto
            return
          </CharString>
          <CharString index="146">
            rmoveto
            -35 45 37 -19 53 hhcurveto
            33 30 8 13 30 hvcurveto
            return
          </CharString>
          <CharString index="147">
            44 -49 -60 15 -49 hhcurveto
            -84 -59 -42 -70 -22 6 -27 9 -19 hvcurveto
            79 -27 6 8 rlineto
            -8 17 -6 22 21 vvcurveto
            39 22 34 64 91 62 -56 -166 243 callgsubr
            return
          </CharString>
          <CharString index="148">
            -33 -1 -34 -7 -31 -12 rrcurveto
            -23 23 -14 25 23 vvcurveto
            36 35 10 34 10 vhcurveto
            38 12 32 14 32 vvcurveto
            24 -19 22 -25 19 vhcurveto
            -24 -10 -3 -37 -22 -3 -49 -18 rlinecurve
            -53 -18 -26 -28 -42 vvcurveto
            -46 32 -38 47 -29 vhcurveto
            return
          </CharString>
          <CharString index="149">
            rmoveto
            -53 53 -11 -1 rlineto
            -43 -30 -66 -36 -77 hhcurveto
            -110 -65 71 93 44 15 46 25 36 hvcurveto
            -2 11 -78 21 rlineto
            -26 -42 -12 -45 -41 vvcurveto
            -79 43 -68 54 -44 vhcurveto
            -39 48 65 -29 78 hhcurveto
            87 78 37 55 37 hvcurveto
            return
          </CharString>
          <CharString index="150">
            rmoveto
            24 61 20 76 8 65 -79 9 rcurveline
            -16 -202 rlineto
            endchar
          </CharString>
          <CharString index="151">
            385 6 rmoveto
            -53 callsubr
            68 13 67 39 31 56 rrcurveto
            -22 25 32 -15 40 2 3 0 2 hhcurveto
            11 -19 12 -17 13 -15 rrcurveto
            -34 29 42 -29 62 hhcurveto
            return
          </CharString>
          <CharString index="152">
            114 84 52 74 67 -68 51 -69 -61 -43 -38 -56 -31 14 -28 21 -22 hvcurveto
            -1 -3 rlineto
            -1 -8 -7 0 -8 hhcurveto
            62 54 rmoveto
            40 32 25 30 21 12 -12 -23 -38 -38 -25 -47 -12 vhcurveto
            -7 16 -3 16 13 vvcurveto
            return
          </CharString>
          <CharString index="153">
            26 -4 -11 23 vhcurveto
            7 7 -21 306 callsubr
            -30 hhcurveto
            -64 -43 -40 return
          </CharString>
          <CharString index="154">
            -30 hvcurveto
            46 -72 rlineto
            11 hlineto
            22 25 30 16 30 hhcurveto
            50 19 return
          </CharString>
          <CharString index="155">
            -45 -9 63 175 42 109 45 return
          </CharString>
          <CharString index="156">
            198 324 74 callsubr
            -42 -9 -27 hhcurveto
            -144 82 rmoveto
            -39 22 -34 27 -24 vhcurveto
            -27 32 42 -16 42 hhcurveto
            16 15 3 3 12 hvcurveto
            2 -2 rlineto
            return
          </CharString>
          <CharString index="157">
            36 32 -51 52 hhcurveto
            54 34 50 49 13 hvcurveto
            endchar
          </CharString>
          <CharString index="158">
            113 403 rmoveto
            24 28 32 17 32 hhcurveto
            56 26 -50 -62 -90 -56 -51 -64 -50 -46 31 57 -43 hvcurveto
            -33 -25 rlineto
            -79 41 74 -57 86 hhcurveto
            82 67 51 86 17 hvcurveto
            -14 22 27 -9 28 hhcurveto
            3 hlineto
            return
          </CharString>
          <CharString index="159">
            34 38 35 17 30 hhcurveto
            34 38 -19 -43 47 hvcurveto
            -202 -128 52 -71 return
          </CharString>
          <CharString index="160">
            0 -59 callgsubr
            310.5 57 return
          </CharString>
          <CharString index="161">
            hhcurveto
            -26 -20 7 9 -16 hvcurveto
            5 14 3 15 15 vvcurveto
            49 -29 48 -38 31 vhcurveto
            25 -30 -41 20 -49 hhcurveto
            -46 -44 -18 -27 -31 hvcurveto
            50 -70 rlineto
            11 hlineto
            28 30 39 19 36 hhcurveto
            43 23 -30 -39 hvcurveto
            return
          </CharString>
          <CharString index="162">
            hhcurveto
            -29 -30 12 32 -21 hvcurveto
            64 27 45 46 60 vvcurveto
            47 -29 36 -19 19 vhcurveto
            29 -29 -37 18 -39 14 callgsubr
            25 13 -15 -28 hvcurveto
            return
          </CharString>
          <CharString index="163">
            154 275 rmoveto
            118 3 vlineto
            178 -155 rlineto
            -33 -26 -47 -23 -44 hhcurveto
            -45 -19 23 70 hvcurveto
            return
          </CharString>
          <CharString index="164">
            vhcurveto
            8 8 -23 65 rlineto
            1 return
          </CharString>
          <CharString index="165">
            rlineto
            74 -71 -38 20 -48 hhcurveto
            -36 -39 -15 -32 -34 hvcurveto
            54 -71 rlineto
            29 32 29 12 25 hhcurveto
            30 29 -17 -46 46 hvcurveto
            -29 -46 -62 -16 -57 hhcurveto
            -44 -34 9 20 -31 hvcurveto
            4 13 2 13 14 vvcurveto
            return
          </CharString>
          <CharString index="166">
            rmoveto
            -174 hlineto
            85 265 rlineto
            endchar
          </CharString>
          <CharString index="167">
            -28 -48 -56 -24 -56 hhcurveto
            -3 hlineto
            32 31 18 32 38 vvcurveto
            44 -25 37 -24 23 vhcurveto
            28 -31 -36 15 -36 hhcurveto
            -61 -54 -44 -69 -52 30 -48 46 -35 hvcurveto
            -36 -19 -41 -18 -40 -16 38 -71 rcurveline
            return
          </CharString>
          <CharString index="168">
            -161 rmoveto
            -16 265 callsubr
            -14 hhcurveto
            -29 -22 13 27 39 45 39 58 19 hvcurveto
            -42 8 -31 -12 rlineto
            -61 -24 -48 -42 -51 vvcurveto
            -49 41 -23 329 callgsubr
            endchar
          </CharString>
          <CharString index="169">
            20 -21 -28 11 -23 hhcurveto
            -34 -35 -22 -32 return
          </CharString>
          <CharString index="170">
            -2 vhcurveto
            -27 callsubr
            return
          </CharString>
          <CharString index="171">
            42 42 hlineto
            90 callsubr
            8 13 vvcurveto
            338 vlineto
            135 callsubr
            return
          </CharString>
          <CharString index="172">
            237 callgsubr
            -9 hvcurveto
            62 22 42 45 -1 50 rrcurveto
            39 -26 36 -24 22 vhcurveto
            30 -33 -46 24 -68 hhcurveto
            -77 -76 -30 -45 -40 hvcurveto
            -18 -20 -7 -19 -11 vvcurveto
            -16 13 -13 19 -18 vhcurveto
            return
          </CharString>
          <CharString index="173">
            rmoveto
            -57 33 -56 61 -45 vhcurveto
            30 31 rlineto
            -32 31 -17 33 34 vvcurveto
            41 31 29 46 18 26 -5 -11 24 vhcurveto
            7 8 -23 57 rlineto
            14 -22 -34 9 -30 hhcurveto
            -66 -52 -45 -68 hvcurveto
            endchar
          </CharString>
          <CharString index="174">
            rmoveto
            32 -23 24 -30 -28 -21 -23 -29 vhcurveto
            -32 1 23 -25 31 hhcurveto
            28 20 23 30 -1 hvcurveto
            endchar
          </CharString>
          <CharString index="175">
            -2 callgsubr
            -137 vlineto
            -6 -6 0 -5 hhcurveto
            -41 -17 -19 -25 -22 12 -16 23 -24 hvcurveto
            20 -21 rlineto
            -26 25 14 -7 20 hhcurveto
            return
          </CharString>
          <CharString index="176">
            -2 callgsubr
            -153 vlineto
            -8 -7 0 -7 hhcurveto
            -41 -18 -21 -24 -22 13 -18 23 -24 hvcurveto
            20 -21 rlineto
            -26 26 16 -9 21 hhcurveto
            return
          </CharString>
          <CharString index="177">
            -199 183 229 callgsubr
            -108 vlineto
            -54 21 -43 32 -32 vhcurveto
            30 -30 42 -18 45 -3 -137 -117 rcurveline
            58 -60 return
          </CharString>
          <CharString index="178">
            -31 -2 -30 -6 -26 -10 rrcurveto
            -20 22 -12 28 21 vvcurveto
            35 33 29 59 5 vhcurveto
            136 -56 rmoveto
            40 26 25 28 37 17 -43 -65 -16 -1 -16 -2 -15 vhcurveto
            -63 7 -42 33 50 vvcurveto
            return
          </CharString>
          <CharString index="179">
            226 callsubr
            20 25 11 21 hhcurveto
            return
          </CharString>
          <CharString index="180">
            300 -6 rmoveto
            5 11 -25 71 rlineto
            -3 -8 -12 -1 -9 hhcurveto
            -34 -39 22 73 -13 hvcurveto
            59 12 60 33 33 48 rrcurveto
            -33 30 38 -16 41 hhcurveto
            8 9 0 2 8 hvcurveto
            -2 vlineto
            return
          </CharString>
          <CharString index="181">
            rmoveto
            -41 -25 19 35 40 34 29 43 49 31 -37 -57 hvcurveto
            -20 -22 return
          </CharString>
          <CharString index="182">
            hhcurveto
            -27 224 callsubr
            11 hlineto
            17 19 25 11 return
          </CharString>
          <CharString index="183">
            38 hlineto
            53 29 -15 -36 -39 -33 -20 -46 -38 -37 13 17 -23 hvcurveto
            return
          </CharString>
          <CharString index="184">
            rmoveto
            208 -162 31 35 -136 154 135 157 -30 35 -208 -166 rlineto
            return
          </CharString>
          <CharString index="185">
            rmoveto
            207 -162 32 35 -136 154 134 157 -30 35 -207 -166 rlineto
            return
          </CharString>
          <CharString index="186">
            229 vlineto
            13 6 7 12 2 vhcurveto
            58 276 callgsubr
            -7 -13 vvcurveto
            -416 vlineto
            -13 -6 -7 58 callgsubr
            vlineto
            return
          </CharString>
          <CharString index="187">
            -22 -25 4 10 -22 hvcurveto
            68 -6 -20 25 -25 hhcurveto
            -9 -12 -2 -16 129 callsubr
            -22 -15 -5 -15 -13 270 callsubr
            return
          </CharString>
          <CharString index="188">
            573 rmoveto
            47 -28 27 -32 -28 -25 -21 -31 -18 9 -13 13 -11 vhcurveto
            8 -6 6 -4 -13 vvcurveto
            -24 -21 -30 -29 -21 vhcurveto
            19 -26 rlineto
            67 32 41 53 59 vvcurveto
            endchar
          </CharString>
          <CharString index="189">
            -66 callsubr
            vlineto
            endchar
          </CharString>
          <CharString index="190">
            49 -56 rlineto
            9 hlineto
            320 callsubr
            -107 vlineto
            -54 18 -42 34 -34 vhcurveto
            27 -27 33 -18 38 -7 rrcurveto
            -2 vlineto
            -131 -114 57 -60 return
          </CharString>
          <CharString index="191">
            vstem
            -88 437 rmoveto
            58 -61 rlineto
            41 37 40 27 43 hhcurveto
            35 21 -19 -30 -38 -35 -34 -57 -15 hvcurveto
            -15 -40 11 -26 17 -29 18 -22 rlinecurve
            -41 33 45 -33 66 hhcurveto
            return
          </CharString>
          <CharString index="192">
            73 callgsubr
            74 22 callgsubr
            return
          </CharString>
          <CharString index="193">
            78 84 66 451 334 callgsubr
            -42 86 129 84 return
          </CharString>
          <CharString index="194">
            348 568 rlineto
            -70 hlineto
            -348 -568 rlineto
            return
          </CharString>
          <CharString index="195">
            -31 -15 -23 -23 -39 vvcurveto
            -29 13 -22 27 -13 vhcurveto
            return
          </CharString>
          <CharString index="196">
            3 -12 -15 4 -13 hhcurveto
            -24 -24 -14 -24 -21 hvcurveto
            return
          </CharString>
          <CharString index="197">
            -43 -25 callsubr
            return
          </CharString>
          <CharString index="198">
            rmoveto
            12 9 rlineto
            15 vlineto
            -30 23 -20 34 36 vvcurveto
            42 32 26 48 21 23 -5 -11 22 vhcurveto
            8 7 -22 57 rlineto
            14 -23 -34 9 -29 hhcurveto
            -70 -48 -46 -61 hvcurveto
            return
          </CharString>
          <CharString index="199">
            22 -8 -7 rlineto
            9 -31 5 -39 -30 vvcurveto
            return
          </CharString>
          <CharString index="200">
            51 1 57 callsubr
            -9 return
          </CharString>
          <CharString index="201">
            49 -22 49 -35 35 vhcurveto
            5 vlineto
            91 67 46 66 39 24 -15 -29 -36 -35 -36 -61 -20 vhcurveto
            -15 -42 14 -31 18 -29 19 -22 rlinecurve
            -35 32 42 -30 66 hhcurveto
            return
          </CharString>
          <CharString index="202">
            9 8 -22 64 rlineto
            4 -16 -20 1 -18 hhcurveto
            -111 -63 -69 -80 -55 27 -48 38 -35 hvcurveto
            35 -33 43 -20 52 -1 rrcurveto
            -3 vlineto
            -131 -123 61 -57 return
          </CharString>
          <CharString index="203">
            hhcurveto
            -17 -16 1 3 -16 hvcurveto
            45 25 23 36 39 vvcurveto
            40 -26 38 -30 26 vhcurveto
            23 -28 -35 18 -37 hhcurveto
            -57 -54 -40 -72 -49 26 -42 39 -32 hvcurveto
            -3 vlineto
            return
          </CharString>
          <CharString index="204">
            rmoveto
            53 vlineto
            -208 166 -30 -35 135 -157 -136 -154 31 -35 rlineto
            return
          </CharString>
          <CharString index="205">
            -45 -48 49 -57 hhcurveto
            -50 -44 -37 -54 -24 hvcurveto
            30 -23 rlineto
            24 19 26 20 29 hhcurveto
            return
          </CharString>
          <CharString index="206">
            333 callsubr
            26 11 20 hhcurveto
            24 15 -15 -25 -40 -38 -35 -68 -21 hvcurveto
            -15 -42 14 -32 19 -29 18 -21 rlinecurve
            -36 32 43 -29 63 hhcurveto
            return
          </CharString>
          <CharString index="207">
            165 callsubr
            48 -30 48 -56 40 vhcurveto
            168 85 6 -8 7 -7 8 -7 rlinecurve
            -27 31 42 -16 42 hhcurveto
            16 15 3 3 12 hvcurveto
            2 -2 rlineto
            return
          </CharString>
          <CharString index="208">
            143 376 rmoveto
            41 30 27 36 30 20 -19 -31 -37 -30 -33 -48 -23 vhcurveto
            -24 19 -14 26 30 vvcurveto
            -75 23 rmoveto
            -48 24 -43 38 -34 vhcurveto
            -2 vlineto
            return
          </CharString>
          <CharString index="209">
            52 -52 rlineto
            9 hlineto
            31 27 16 11 8 hhcurveto
            8 2 -11 -30 hvcurveto
            -41 vlineto
            -149 2 rlineto
            -101 1 -87 -37 -102 vvcurveto
            -80 59 -94 98 -76 vhcurveto
            endchar
          </CharString>
          <CharString index="210">
            22 44 44 -1 52 -1 39 -25 33 -25 24 rrcurveto
            31 -34 return
          </CharString>
          <CharString index="211">
            107 108 rlineto
            34 34 42 28 40 hhcurveto
            28 19 -15 -24 -37 -41 -34 -59 -14 259 callsubr
            18 -21 rlinecurve
            -38 32 46 -32 66 hhcurveto
            return
          </CharString>
          <CharString index="212">
            -78 -33 -49 -49 -41 -5 35 48 vhcurveto
            121 vlineto
            36 -12 32 -25 22 173 callgsubr
            -31 -24 hvcurveto
            49 -56 rlineto
            9 hlineto
            return
          </CharString>
          <CharString index="213">
            rmoveto
            -143 2 -52 71 82 vvcurveto
            77 56 59 96 22 vhcurveto
            6 10 -42 63 rlineto
            -107 -16 -92 -86 -113 vvcurveto
            -118 92 -105 184 vhcurveto
            endchar
          </CharString>
          <CharString index="214">
            193 -6 95 -74 -21 367 53 -41 41 return
          </CharString>
          <CharString index="215">
            -30 -8 -17 -23 hvcurveto
            return
          </CharString>
          <CharString index="216">
            267 436 rmoveto
            32 37 -9 -13 33 hvcurveto
            8 9 -19 69 rlineto
            14 -34 -46 6 -33 hhcurveto
            -98 -50 -50 -59 -37 20 -30 27 -23 hvcurveto
            -1 vlineto
            return
          </CharString>
          <CharString index="217">
            -13 12 -46 -1 -61 -8 -45 -13 rlinecurve
            -39 vlineto
            51 -7 rlineto
            13 -2 6 -7 -13 vvcurveto
            -493 vlineto
            -12 -7 -8 -56 callsubr
            vlineto
            return
          </CharString>
          <CharString index="218">
            hmoveto
            19 50 -199 520 rlineto
            -95 hlineto
            -194 -520 19 -50 rlineto
            52 67 rmoveto
            hintmask 11010000
            150 423 157 -423 rlineto
            endchar
          </CharString>
          <CharString index="219">
            298 14 rmoveto
            -65 65 -27 58 48 vvcurveto
            59 41 27 70 21 20 -2 -4 19 vhcurveto
            13 -31 16 -26 16 -19 rrcurveto
            -39 30 45 -33 66 hhcurveto
            return
          </CharString>
          <CharString index="220">
            -8 29 -6 25 24 vvcurveto
            44 29 21 42 19 25 -4 -11 23 vhcurveto
            8 7 -22 58 rlineto
            14 -22 -35 8 -29 hhcurveto
            -63 -42 -38 -60 -2 hvcurveto
            return
          </CharString>
          <CharString index="221">
            32 vlineto
            47 -6 60 -16 61 -35 -166 -88 rcurveline
            -51 -26 -15 -25 -26 vvcurveto
            -28 18 -18 32 -10 vhcurveto
            9 -3 rlineto
            -4 11 24 -5 15 hhcurveto
            return
          </CharString>
          <CharString index="222">
            rmoveto
            -37 19 rlineto
            -46 -24 -34 -19 -38 hhcurveto
            -40 -32 21 44 -21 hvcurveto
            -42 -19 rlineto
            -62 13 48 -52 70 hhcurveto
            71 49 49 65 17 hvcurveto
            endchar
          </CharString>
          <CharString index="223">
            rmoveto
            19 -12 17 -22 -22 -11 -17 -19 -17 11 -18 22 22 12 18 17 vhcurveto
            return
          </CharString>
          <CharString index="224">
            56 11 56 28 35 40 rrcurveto
            -23 23 28 -15 36 hhcurveto
            return
          </CharString>
          <CharString index="225">
            hstemhm
            31 125 -60 86 147 84 return
          </CharString>
          <CharString index="226">
            -68 -34 -43 -46 -55 vvcurveto
            -43 28 -39 25 -23 vhcurveto
            -32 34 41 -18 43 hhcurveto
            7 6 0 1 6 hvcurveto
            43 -146 12 -3 73 36 rlineto
            return
          </CharString>
          <CharString index="227">
            -44 -58 -78 -18 147 callsubr
            4 return
          </CharString>
          <CharString index="228">
            rmoveto
            93 98 102 -98 33 29 -101 145 -68 -6 -90 -141 rlineto
            endchar
          </CharString>
          <CharString index="229">
            25 21 17 21 8 327 callsubr
            36 -33 vhcurveto
            -30 32 41 -14 36 hhcurveto
            53 50 30 65 21 hvcurveto
            return
          </CharString>
          <CharString index="230">
            318 callgsubr
            -102 vlineto
            -60 22 -47 35 -33 vhcurveto
            -30 33 40 -14 37 hhcurveto
            56 52 34 73 19 hvcurveto
            return
          </CharString>
          <CharString index="231">
            hhcurveto
            -42 -27 22 32 -11 hvcurveto
            69 21 48 44 60 vvcurveto
            43 -26 37 -24 22 vhcurveto
            30 -31 -36 15 -36 182 callgsubr
            return
          </CharString>
          <CharString index="232">
            hhcurveto
            -8 -9 1 2 -7 hvcurveto
            4 0 4 4 vvcurveto
            62 -26 60 -47 -14 -14 -5 -8 -14 vhcurveto
            -6 -3 rlineto
            -17 -11 -11 -16 -18 vvcurveto
            return
          </CharString>
          <CharString index="233">
            -23 6 -27 10 -19 hvcurveto
            78 -27 8 8 rlineto
            -9 17 -8 21 20 vvcurveto
            return
          </CharString>
          <CharString index="234">
            6 66 1 56 -7 63 rrcurveto
            -501 hlineto
            return
          </CharString>
          <CharString index="235">
            vlineto
            -12 236 callgsubr
            return
          </CharString>
          <CharString index="236">
            -21 hvcurveto
            -5 -4 rlineto
            return
          </CharString>
          <CharString index="237">
            -269 -329 rmoveto
            -38 -17 19 34 40 25 23 56 3 hvcurveto
            60 5 2 -30 6 -28 11 -24 rlinecurve
            -28 -31 -41 -14 -33 hhcurveto
            return
          </CharString>
          <CharString index="238">
            66 264 71 3 -20 hstemhm
            24 81 157 83 return
          </CharString>
          <CharString index="239">
            -39 -19 -25 -32 -39 vvcurveto
            -42 28 -42 31 -28 vhcurveto
            return
          </CharString>
          <CharString index="240">
            71 453 -20 hstem
            115 85 128 85 vstem
            return
          </CharString>
          <CharString index="241">
            312 callgsubr
            150 return
          </CharString>
          <CharString index="242">
            -13 13 rlineto
            -46 91 callgsubr
            -83 callsubr
            -261 -49 callsubr
            -13 -2 vhcurveto
            return
          </CharString>
          <CharString index="243">
            38 -21 36 -30 26 vhcurveto
            23 -27 -37 17 -38 hhcurveto
            -52 -50 -29 -45 -44 hvcurveto
            -120 -120 rlineto
            -38 25 -17 23 24 vvcurveto
            return
          </CharString>
          <CharString index="244">
            29 -27 36 -33 -37 vvcurveto
            -29 -22 -21 -33 -43 -51 34 59 -40 vhcurveto
            -33 -26 rlineto
            -87 46 68 -48 71 hhcurveto
            67 49 43 59 return
          </CharString>
          <CharString index="245">
            181 callgsubr
            -73 -63 vvcurveto
            -66 30 -55 41 -39 vhcurveto
            -32 34 42 -23 50 hhcurveto
            63 51 40 60 19 hvcurveto
            return
          </CharString>
          <CharString index="246">
            -335 21 -21 568 -20 hstem
            -139 418 vstem
            -69 hmoveto
            87 callsubr
            endchar
          </CharString>
          <CharString index="247">
            -52 callgsubr
            19 -24 return
          </CharString>
          <CharString index="248">
            hlineto
            -38 -51 rlineto
            -7 return
          </CharString>
          <CharString index="249">
            73 383 rmoveto
            -83 75 -31 53 -17 vhcurveto
            36 -12 41 -10 21 -23 rrcurveto
            11 -12 3 -13 -11 vvcurveto
            -41 -37 -31 -59 vhcurveto
            return
          </CharString>
          <CharString index="250">
            -72 -26 -39 -56 -58 vvcurveto
            -49 28 -44 33 -31 vhcurveto
            -36 41 55 -24 65 hhcurveto
            104 76 62 86 85 -72 47 -71 30 hvcurveto
            return
          </CharString>
          <CharString index="251">
            -281 458 rmoveto
            26 25 -16 -35 -37 -29 -34 -44 -31 hvcurveto
            -27 20 -17 28 33 vvcurveto
            47 34 25 32 vhcurveto
            endchar
          </CharString>
          <CharString index="252">
            -3 -17 129 callsubr
            -21 return
          </CharString>
          <CharString index="253">
            28 7 10 23 hvcurveto
            endchar
          </CharString>
          <CharString index="254">
            vhcurveto
            -82 callgsubr
            return
          </CharString>
          <CharString index="255">
            64 27 56 27 44 28 24 -8 27 -5 27 -2 rrcurveto
            -15 -22 -7 -26 -24 vvcurveto
            1 -81 71 -75 138 9 rrcurveto
            return
          </CharString>
          <CharString index="256">
            hhcurveto
            -27 -27 3 6 -24 hvcurveto
            4 vlineto
            46 25 24 35 40 vvcurveto
            41 -26 38 -29 26 vhcurveto
            23 -27 -36 18 -37 hhcurveto
            return
          </CharString>
          <CharString index="257">
            214 callsubr
            -6 6 13 vvcurveto
            return
          </CharString>
          <CharString index="258">
            rmoveto
            -29 27 48 -20 58 hhcurveto
            90 56 47 58 return
          </CharString>
          <CharString index="259">
            -114 -415 -117 415 rlineto
            return
          </CharString>
          <CharString index="260">
            42 110 278 111 return
          </CharString>
          <CharString index="261">
            -3 -9 46 342 46 return
          </CharString>
          <CharString index="262">
            -174 -21 60 83 return
          </CharString>
          <CharString index="263">
            656 399 rmoveto
            -40 -36 -33 -65 -20 vhcurveto
            -14 -42 13 -31 19 -29 19 -22 rlinecurve
            -36 31 47 -29 60 hhcurveto
            return
          </CharString>
          <CharString index="264">
            10 -16 9 -18 10 -20 rlinecurve
            39 -76 rlineto
            -38 18 14 -28 22 hhcurveto
            124 42 hlineto
            -44 11 -11 2 -8 6 return
          </CharString>
          <CharString index="265">
            52 callsubr
            176 133 rlineto
            -79 vlineto
            -59 return
          </CharString>
          <CharString index="266">
            rlineto
            12 -2 6 return
          </CharString>
          <CharString index="267">
            hhcurveto
            -28 -29 8 27 -26 hvcurveto
            76 25 62 57 69 vvcurveto
            40 -21 39 -33 30 vhcurveto
            30 -33 -44 22 -48 hhcurveto
            return
          </CharString>
          <CharString index="268">
            143 376 rmoveto
            40 30 28 35 31 20 -19 -31 -36 -30 -33 -43 -22 vhcurveto
            -26 18 -17 25 30 vvcurveto
            return
          </CharString>
          <CharString index="269">
            150 374 rmoveto
            41 30 29 36 30 20 -19 -31 -38 -30 -33 -46 -22 vhcurveto
            -25 19 -15 24 30 vvcurveto
            return
          </CharString>
          <CharString index="270">
            81 -60 81 -13 -20 hstemhm
            96 94 203 94 203 94 return
          </CharString>
          <CharString index="271">
            -60 callsubr
            -10 hhcurveto
            -74 -58 -42 -63 return
          </CharString>
          <CharString index="272">
            413 110 rmoveto
            return
          </CharString>
          <CharString index="273">
            -42 hlineto
            -28 -26 -3 -6 -24 hvcurveto
            -11 15 -6 16 14 vvcurveto
            35 35 23 58 vhcurveto
            19 hlineto
            7 8 rlineto
            return
          </CharString>
          <CharString index="274">
            48 -56 rlineto
            10 hlineto
            29 26 16 17 -14 callgsubr
            -43 vlineto
            -43 14 -32 35 -21 vhcurveto
            return
          </CharString>
          <CharString index="275">
            90 104 130 92 110 hhcurveto
            46 21 -18 -28 -50 -66 -25 -55 -22 hvcurveto
            -82 -32 -75 -32 -77 vvcurveto
            return
          </CharString>
          <CharString index="276">
            40 20 29 27 -56 callgsubr
            -4 -61 callgsubr
            return
          </CharString>
          <CharString index="277">
            123 115 rmoveto
            28 -21 22 -23 -27 -15 -22 -23 -28 23 -20 23 24 16 20 23 vhcurveto
            endchar
          </CharString>
          <CharString index="278">
            hstemhm
            -2 234 83 228 87 194 return
          </CharString>
          <CharString index="279">
            185 -46 46 hstemhm
            26 55 151 99 return
          </CharString>
          <CharString index="280">
            114 80 94 hhcurveto
            49 23 -25 -42 hvcurveto
            return
          </CharString>
          <CharString index="281">
            vhcurveto
            -34 -27 rlineto
            -106 62 return
          </CharString>
          <CharString index="282">
            -6 -14 -45 hvcurveto
            return
          </CharString>
          <CharString index="283">
            -8 6 -5 6 6 vvcurveto
            7 6 10 11 9 vhcurveto
            32 37 56 17 52 hhcurveto
            43 12 -14 -58 hvcurveto
            return
          </CharString>
          <CharString index="284">
            17 -74 101 24 rlineto
            -4 -9 -2 -10 -10 vvcurveto
            -37 22 -30 29 -23 vhcurveto
            -22 28 43 -23 52 hhcurveto
            return
          </CharString>
          <CharString index="285">
            vlineto
            -59 8 -30 23 -29 vhcurveto
            -25 20 23 -9 20 hhcurveto
            hintmask 11011100
            146 callgsubr
          </CharString>
          <CharString index="286">
            -34 11 -33 10 -19 15 rrcurveto
            -14 10 -8 14 20 vvcurveto
            37 32 35 45 44 30 -30 -39 33 vhcurveto
            return
          </CharString>
          <CharString index="287">
            42 205 43 239 39 -39 44 247 callsubr
            return
          </CharString>
          <CharString index="288">
            64 0 42 469 -20 34 43 return
          </CharString>
          <CharString index="289">
            rmoveto
            40 -48 -39 20 -49 hhcurveto
            return
          </CharString>
          <CharString index="290">
            vhcurveto
            282 vlineto
            12 return
          </CharString>
          <CharString index="291">
            185 -9 63 -62 58 121.5 41.5 16 42 85 67 -44 46 return
          </CharString>
          <CharString index="292">
            vvcurveto
            -58 callsubr
            return
          </CharString>
          <CharString index="293">
            vvcurveto
            38 41 17 50 241 callsubr
            -64 return
          </CharString>
          <CharString index="294">
            92 95 rmoveto
            26 -19 22 -24 -24 -16 -21 -23 -27 22 -19 23 22 16 18 24 vhcurveto
            endchar
          </CharString>
          <CharString index="295">
            40 20 29 27 hvcurveto
            endchar
          </CharString>
          <CharString index="296">
            6 -7 -12 vvcurveto
            return
          </CharString>
          <CharString index="297">
            41 18 39 13 34 8 3 -2 rcurveline
            -5 -14 -2 -15 -17 vvcurveto
            -80 56 -94 98 -76 vhcurveto
            return
          </CharString>
          <CharString index="298">
            rmoveto
            3 47 rlineto
            -90 -4 -44 41 55 vvcurveto
            51 41 44 75 21 vhcurveto
            5 7 -37 66 rlineto
            return
          </CharString>
          <CharString index="299">
            -30 29 -18 35 34 vvcurveto
            46 33 25 45 18 26 -4 -11 24 199 callsubr
            return
          </CharString>
          <CharString index="300">
            rmoveto
            44 30 33 36 29 19 -21 -27 -36 -36 -31 -57 -30 vhcurveto
            -14 21 -7 24 23 vvcurveto
            return
          </CharString>
          <CharString index="301">
            -7 -7 25 -67 rlineto
            106 hlineto
            -10 -18 -6 -23 -26 vvcurveto
            -80 55 -93 100 -77 vhcurveto
            endchar
          </CharString>
          <CharString index="302">
            16 -51 hhcurveto
            -41 -49 -11 -21 -37 hvcurveto
            37 -72 rlineto
            return
          </CharString>
          <CharString index="303">
            rmoveto
            14 -8 18 -26 17 246 callsubr
            14 -21 return
          </CharString>
          <CharString index="304">
            hlineto
            17 19 25 11 21 hhcurveto
            24 14 return
          </CharString>
          <CharString index="305">
            29 69 45 hvcurveto
            -51 63 rlineto
            -10 hlineto
            return
          </CharString>
          <CharString index="306">
            vhcurveto
            7 7 -22 58 rlineto
            return
          </CharString>
          <CharString index="307">
            -64 49 -37 69 vhcurveto
            return
          </CharString>
          <CharString index="308">
            22 18 15 22 17 13 -8 -17 -24 -23 -16 -32 -10 vhcurveto
            -10 12 -5 13 13 vvcurveto
            return
          </CharString>
          <CharString index="309">
            -15 5 -16 19 -25 vhcurveto
            10 -13 rlineto
            -23 17 16 -14 23 hhcurveto
            26 20 19 32 hvcurveto
            return
          </CharString>
          <CharString index="310">
            hstem
            78 85 vstem
            275 -139 rmoveto
            42 vlineto
            -92 9 rlineto
            -13 1 -7 8 13 vvcurveto
            return
          </CharString>
          <CharString index="311">
            vvcurveto
            -59 -24 -24 -55 -12 vhcurveto
            -49 -9 6 -45 rlineto
            23 28 1 3 28 hvcurveto
            endchar
          </CharString>
          <CharString index="312">
            rmoveto
            54 -37 35 -58 -57 -37 -35 -54 -54 37 -35 57 58 37 35 54 vhcurveto
            endchar
          </CharString>
          <CharString index="313">
            -39 -33 -24 -30 -23 hvcurveto
            endchar
          </CharString>
          <CharString index="314">
            17 vvcurveto
            23 13 20 19 12 vhcurveto
            11 vlineto
            -75 31 rlineto
            -26 -22 -12 -28 -26 vvcurveto
            return
          </CharString>
          <CharString index="315">
            343 -7 rmoveto
            42 -31 27 -61 23 vhcurveto
            -39 14 rlineto
            -53 21 -10 12 58 vvcurveto
            return
          </CharString>
          <CharString index="316">
            -42 -7 rlineto
            -42 108 -2 vlineto
            -52 -21 -49 -41 -52 vvcurveto
            -49 42 -23 53 vhcurveto
            return
          </CharString>
          <CharString index="317">
            -21 61 rlineto
            2 -13 -14 1 -12 hhcurveto
            -89 -51 -49 -54 -34 21 -31 34 -23 hvcurveto
            return
          </CharString>
          <CharString index="318">
            -26 -34 vvcurveto
            -51 48 -26 56 -23 vhcurveto
            52 -21 31 -13 -31 vvcurveto
            -33 -35 -19 -48 return
          </CharString>
          <CharString index="319">
            32 -22 22 -34 -33 -23 -22 -32 -31 23 -22 33 34 22 22 31 vhcurveto
            endchar
          </CharString>
          <CharString index="320">
            -14 callsubr
            -10 hhcurveto
            -73 -59 -42 return
          </CharString>
          <CharString index="321">
            336 callgsubr
            -12 3 return
          </CharString>
          <CharString index="322">
            -171 -21 192 return
          </CharString>
          <CharString index="323">
            36 -12 32 -25 23 vhcurveto
            19 -21 -27 12 -25 hhcurveto
            -33 -35 -22 -32 -25 hvcurveto
            return
          </CharString>
          <CharString index="324">
            hhcurveto
            -37 -20 24 33 44 35 29 53 9 9 -1 -1 12 hvcurveto
            6 6 rlineto
            return
          </CharString>
          <CharString index="325">
            36 -12 31 -25 24 vhcurveto
            20 -22 -27 11 -24 hhcurveto
            -32 -36 -22 -32 -24 hvcurveto
            return
          </CharString>
          <CharString index="326">
            47 -55 rlineto
            10 hlineto
            24 20 17 20 8 hhcurveto
            8 1 -10 -30 hvcurveto
            -78 vlineto
            return
          </CharString>
          <CharString index="327">
            -199 -188 56 132 -59 callgsubr
            377.5 -20 return
          </CharString>
          <CharString index="328">
            66 27 69 251 75 hstemhm
            24 128 -79 85 155 85 187 76 return
          </CharString>
          <CharString index="329">
            -49 -5 143 143 -45 45 -217 -217 217 -217 45 46 return
          </CharString>
          <CharString index="330">
            14 rrcurveto
            33 -38 -36 21 -49 hhcurveto
            return
          </CharString>
          <CharString index="331">
            108 callsubr
            42 -73 rlineto
            return
          </CharString>
          <CharString index="332">
            hstemhm
            41 55 -50 89 132 93 return
          </CharString>
          <CharString index="333">
            42 -73 rlineto
            10 hlineto
            17 return
          </CharString>
          <CharString index="334">
            103 141 rlineto
            endchar
          </CharString>
          <CharString index="335">
            242 callsubr
            hvcurveto
            return
          </CharString>
          <CharString index="336">
            68 -62 69 256 70 5 -20 hstemhm
            24 81 157 83 163 76 return
          </CharString>
          <CharString index="337">
            65 119 60 215 64 hstemhm
            29 79 118 73 12 82 1 73 return
          </CharString>
          <CharString index="338">
            66 hstem
            94 97 vstem
            312 -105 rmoveto
            -49 10 rlineto
            -55 11 -25 24 59 return
          </CharString>
          <CharString index="339">
            32 -22 21 -33 -34 -22 -21 -32 -32 22 -21 34 33 22 21 32 vhcurveto
            return
          </CharString>
          <CharString index="340">
            4 10 -28 74 rlineto
            -11 -23 -33 -9 -28 hhcurveto
            -42 -50 18 69 -22 hvcurveto
            return
          </CharString>
          <CharString index="341">
            -15 -31 -9 2 -13 4 -14 hvcurveto
            -8 -19 return
          </CharString>
          <CharString index="342">
            21 -31 -31 -20 -21 return
          </CharString>
          <CharString index="343">
            -21 31 31 20 21 return
          </CharString>
          <CharString index="344">
            9 31 31 46 hhcurveto
            return
          </CharString>
          <CharString index="345">
            96 84 150 83 return
          </CharString>
          <CharString index="346">
            150 -103 65 176 70 hstemhm
            238 callsubr
            289 76 return
          </CharString>
          <CharString index="347">
            54 192 rmoveto
            -39 25 -32 30 -26 vhcurveto
            -29 34 39 -17 49 hhcurveto
            return
          </CharString>
          <CharString index="348">
            -76 callgsubr
            -10 hhcurveto
            -74 -58 -42 return
          </CharString>
          <CharString index="349">
            -27 callgsubr
            94 hhcurveto
            96 62 51 71 return
          </CharString>
          <CharString index="350">
            271 callgsubr
            123 return
          </CharString>
          <CharString index="351">
            hhcurveto
            26 30 5 13 27 hvcurveto
            5 10 -27 70 rlineto
            -10 -22 -27 -6 return
          </CharString>
          <CharString index="352">
            36 -8 33 27 vvcurveto
            57 39 32 62 46 24 -17 -29 vhcurveto
            endchar
          </CharString>
          <CharString index="353">
            vhcurveto
            -8 6 rlineto
            return
          </CharString>
          <CharString index="354">
            hstemhm
            113 100 return
          </CharString>
          <CharString index="355">
            18 -9 18 -6 20 -3 rrcurveto
            -2 vlineto
            -177 -185 63 -56 return
          </CharString>
          <CharString index="356">
            70 -69 73 41 70 142 68 hstemhm
            287 79 177 75 return
          </CharString>
          <CharString index="357">
            -22 58 rlineto
            15 -24 -34 10 -28 hhcurveto
            -51 -41 -33 -64 -3 hvcurveto
            return
          </CharString>
          <CharString index="358">
            -14 -13 vvcurveto
            -30 -35 -15 -46 -23 vhcurveto
            -58 -30 -64 -40 -74 vvcurveto
            return
          </CharString>
          <CharString index="359">
            67 242 69 11 -20 hstemhm
            238 callsubr
            165 78 return
          </CharString>
          <CharString index="360">
            66 hstem
            134 85 vstem
            99 -146 rmoveto
            92 6 41 45 77 return
          </CharString>
          <CharString index="361">
            42 -73 rlineto
            11 hlineto
            17 19 25 11 21 hhcurveto
            25 13 -14 -30 return
          </CharString>
          <CharString index="362">
            vvcurveto
            -77 41 -44 92 -7 vhcurveto
            -3 28 29 -1 22 hhcurveto
            endchar
          </CharString>
          <CharString index="363">
            -4 -1 -6 hvcurveto
            -160 hlineto
            77 9 return
          </CharString>
          <CharString index="364">
            10 -14 6 -14 -13 vvcurveto
            -30 -35 -15 return
          </CharString>
          <CharString index="365">
            24 49 vvcurveto
            37 -25 32 -37 29 vhcurveto
            return
          </CharString>
          <CharString index="366">
            hvcurveto
            -15 -40 11 -25 17 -29 return
          </CharString>
          <CharString index="367">
            -234 -11 59 464 -20 return
          </CharString>
          <CharString index="368">
            70 hstem
            36 83 163 81 return
          </CharString>
          <CharString index="369">
            23 -25 18 vhcurveto
            -23 -10 return
          </CharString>
          <CharString index="370">
            290 callgsubr
            94 return
          </CharString>
          <CharString index="371">
            51 -11 46 497 46 return
          </CharString>
          <CharString index="372">
            39 291 callsubr
            return
          </CharString>
          <CharString index="373">
            64 0 -20 hstemhm
            return
          </CharString>
          <CharString index="374">
            508 396 rmoveto
            -35 -37 -36 -59 -19 vhcurveto
            -16 -42 rlineto
            return
          </CharString>
          <CharString index="375">
            52 13 330 callsubr
            24 83 368 76 return
          </CharString>
          <CharString index="376">
            229 11 rmoveto
            -44 49 -15 34 34 vvcurveto
            60 45 20 101 return
          </CharString>
          <CharString index="377">
            vvcurveto
            -25 19 -24 64 -25 vhcurveto
            -119 8 56 -77 95 hhcurveto
            return
          </CharString>
          <CharString index="378">
            -20 58 90 -47 -20 39 85 -16 72 -62 -21 24 -21 hstemhm
            return
          </CharString>
          <CharString index="379">
            -54 -19 -36 -38 -55 vvcurveto
            -55 37 -67 79 -58 vhcurveto
            endchar
          </CharString>
          <CharString index="380">
            vvcurveto
            -51 -48 -29 return
          </CharString>
          <CharString index="381">
            87 180.5 84.5 hintmask 01100111
            return
          </CharString>
          <CharString index="382">
            hhcurveto
            -43 -29 23 31 -10 hvcurveto
            66 22 46 40 55 vvcurveto
            return
          </CharString>
          <CharString index="383">
            265 437 rmoveto
            35 47 -14 -44 46 hvcurveto
            11 hlineto
            return
          </CharString>
          <CharString index="384">
            78 133 -20 hstemhm
            115 85 128 85 23 90 return
          </CharString>
          <CharString index="385">
            -11 72 -46 -21 51 35 150 47 188 46 hstemhm
            return
          </CharString>
          <CharString index="386">
            hhcurveto
            -42 -30 22 32 -13 hvcurveto
            89 26 59 52 73 vvcurveto
            return
          </CharString>
          <CharString index="387">
            hhcurveto
            -42 -30 23 31 -9 hvcurveto
            65 22 46 40 55 vvcurveto
            return
          </CharString>
          <CharString index="388">
            82 34 -92 164 rlineto
            33 16 23 23 23 vvcurveto
            16 return
          </CharString>
          <CharString index="389">
            rrcurveto
            -2 callsubr
            return
          </CharString>
          <CharString index="390">
            14 -31 20 -29 18 -21 rrcurveto
            -36 32 44 -30 64 hhcurveto
            return
          </CharString>
          <CharString index="391">
            -21 160 150 -108 72 108 77 -10 68 return
          </CharString>
          <CharString index="392">
            71 214 66 -7 -20 hstemhm
            64 85 105 89 76 80 return
          </CharString>
          <CharString index="393">
            -37 -35 -31 vhcurveto
            18 -24 rlineto
            59 34 49 61 71 vvcurveto
            return
          </CharString>
          <CharString index="394">
            vlineto
            8 8 -22 47 rlineto
            9 -96 return
          </CharString>
          <CharString index="395">
            -10 -25 -44 -65 -16 -69 -19 hvcurveto
            return
          </CharString>
          <CharString index="396">
            30 6 10 21 hvcurveto
            endchar
          </CharString>
          <CharString index="397">
            -190 36 88 34 return
          </CharString>
          <CharString index="398">
            rlineto
            -7 -15 -17 -3 return
          </CharString>
          <CharString index="399">
            68 142 callgsubr
            return
          </CharString>
          <CharString index="400">
            35 -24 23 -37 -36 return
          </CharString>
          <CharString index="401">
            -20 33 -20 hstemhm
            return
          </CharString>
          <CharString index="402">
            rlineto
            -13 2 -6 return
          </CharString>
          <CharString index="403">
            -45 25 -40 37 -32 vhcurveto
            -32 38 51 -23 68 hhcurveto
            return
          </CharString>
          <CharString index="404">
            -45 -25 24 41 -31 hvcurveto
            31 -24 -48 59 -77 hhcurveto
            return
          </CharString>
          <CharString index="405">
            -20 102 -20 38 85 -20 20 -20 72 -58 -21 hstemhm
            return
          </CharString>
          <CharString index="406">
            -22 -21 -27 -27 -39 vvcurveto
            -31 18 -26 23 -19 vhcurveto
            return
          </CharString>
          <CharString index="407">
            -96 -6 -54 -50 -65 vvcurveto
            -47 28 -36 46 -30 vhcurveto
            return
          </CharString>
          <CharString index="408">
            -76 142 -61 61 324 45 -45 123 hstemhm
            return
          </CharString>
          <CharString index="409">
            71 214 66 hstemhm
            64 85 226 89 -48 80 return
          </CharString>
          <CharString index="410">
            -68 72 -31 61 58 vvcurveto
            67 40 21 100 1 vhcurveto
            return
          </CharString>
          <CharString index="411">
            222 50 110 31 -31 41 111 52 hstemhm
            return
          </CharString>
          <CharString index="412">
            vlineto
            13 -13 52 -1 75 4 57 7 rlinecurve
            endchar
          </CharString>
          <CharString index="413">
            58 rlineto
            14 -23 -34 8 return
          </CharString>
          <CharString index="414">
            17 51 1 vhcurveto
            8 8 return
          </CharString>
          <CharString index="415">
            155 634 rmoveto
            -28 return
          </CharString>
          <CharString index="416">
            rlinecurve
            -42 vlineto
            48 -7 rlineto
            return
          </CharString>
          <CharString index="417">
            vhcurveto
            62 31 rlineto
            10 vlineto
            return
          </CharString>
          <CharString index="418">
            62 51 71 hvcurveto
            endchar
          </CharString>
          <CharString index="419">
            1 -10 hhcurveto
            -73 return
          </CharString>
          <CharString index="420">
            -20 21 -20 hstemhm
            return
          </CharString>
          <CharString index="421">
            22 -9 19 hhcurveto
            hintmask 0010110010000000
            27 38 17 27 return
          </CharString>
          <CharString index="422">
            -74 31 -37 16 33 vvcurveto
            33 33 26 51 vhcurveto
            return
          </CharString>
          <CharString index="423">
            71 22 135 123 67 hstemhm
            232 77 return
          </CharString>
          <CharString index="424">
            -40 -42 vvcurveto
            -40 27 -35 37 -26 vhcurveto
            -26 38 return
          </CharString>
          <CharString index="425">
            135 -6 47 -41 41 487 40 -40 45 return
          </CharString>
          <CharString index="426">
            7 9 -16 hvcurveto
            285 vlineto
            17 22 26 10 return
          </CharString>
          <CharString index="427">
            25 20 17 21 -14 callgsubr
            return
          </CharString>
          <CharString index="428">
            26 vhcurveto
            23 -27 -36 18 -37 hhcurveto
            -57 -55 -40 return
          </CharString>
          <CharString index="429">
            20 -45 32 -33 vhcurveto
            -31 30 47 -25 61 hhcurveto
            return
          </CharString>
          <CharString index="430">
            rmoveto
            -64 -45 -44 -57 -21 4 -17 8 -16 hvcurveto
            return
          </CharString>
          <CharString index="431">
            -21 -6 -19 -14 vvcurveto
            -34 35 -15 50 vhcurveto
            5 return
          </CharString>
          <CharString index="432">
            hhcurveto
            -56 -36 27 53 63 50 25 61 31 hvcurveto
            return
          </CharString>
          <CharString index="433">
            -24 vhcurveto
            -26 35 43 -14 42 hhcurveto
            80 84 52 return
          </CharString>
          <CharString index="434">
            hhcurveto
            8 2 -13 -28 hvcurveto
            -102 vlineto
            -60 22 -47 return
          </CharString>
          <CharString index="435">
            330 291 hstem
            58 74.5 return
          </CharString>
          <CharString index="436">
            hstemhm
            42 115 255 97 return
          </CharString>
          <CharString index="437">
            69 256 70 0 -20 hstemhm
            return
          </CharString>
          <CharString index="438">
            hstem
            8 158 vstem
            166 return
          </CharString>
          <CharString index="439">
            128 140 77 -52 82 return
          </CharString>
          <CharString index="440">
            226 callsubr
            19 return
          </CharString>
          <CharString index="441">
            65 hvcurveto
            21 hlineto
            8 return
          </CharString>
          <CharString index="442">
            2 -7 7 13 vvcurveto
            return
          </CharString>
          <CharString index="443">
            32 hhcurveto
            57 17 return
          </CharString>
          <CharString index="444">
            59 126 72 return
          </CharString>
          <CharString index="445">
            73 callgsubr
            74 hvcurveto
            return
          </CharString>
          <CharString index="446">
            -21 161 150 -101 67 165 68 return
          </CharString>
          <CharString index="447">
            -10 15 -71 rcurveline
            54 hlineto
            7 43 3 44 return
          </CharString>
          <CharString index="448">
            -8 43 137 45 59 44 145 43 return
          </CharString>
          <CharString index="449">
            0 41 158 45 86 42 87 42 hstemhm
            return
          </CharString>
          <CharString index="450">
            35 20 -17 -27 -26 -21 -23 -30 -28 hvcurveto
            return
          </CharString>
          <CharString index="451">
            -26 20 -25 rrcurveto
            -25 20 23 -9 20 hhcurveto
            return
          </CharString>
          <CharString index="452">
            71 hstemhm
            24 78 261 79 125 85 return
          </CharString>
          <CharString index="453">
            74 164 98 0 -20 119 -20 hstemhm
            return
          </CharString>
          <CharString index="454">
            rmoveto
            -27 17 rlineto
            -34 -24 -44 -20 -43 hhcurveto
            return
          </CharString>
          <CharString index="455">
            vlineto
            3 16 2 22 15 vvcurveto
            90 -59 53 return
          </CharString>
          <CharString index="456">
            -35 -34 24 -23 36 37 23 23 34 vhcurveto
            return
          </CharString>
          <CharString index="457">
            -67 -47 -46 -60 -29 11 -30 21 -26 hvcurveto
            return
          </CharString>
          <CharString index="458">
            196 0 42 222 53 208 43 return
          </CharString>
          <CharString index="459">
            -114 rmoveto
            63 -328 -63 vlineto
            endchar
          </CharString>
          <CharString index="460">
            hstemhm
            -2 197 return
          </CharString>
          <CharString index="461">
            20 -21 31 31 return
          </CharString>
          <CharString index="462">
            95 62 50 72 return
          </CharString>
        <CharString name=".notdef">
          169 0 92 329 94 hstem
          64 96 325 94 vstem
          160 141 rmoveto
          125 115 -125 123 41 42 121 -128 119 128 44 -42 -127 -122 127 -124 -41 -41 -123 128 -118 -128 rlineto
          -139 -92 rmoveto
          515 515 -515 hlineto
          endchar
        </CharString>
        <CharString name="A">
          15 callsubr
          89 callgsubr
          hintmask 11010100
          128 callgsubr
          hintmask 11101010
          -171 -498 -92 callsubr
          -155 149 59 callsubr
        </CharString>
        <CharString name="AE">
          -68 callgsubr
          endchar
        </CharString>
        <CharString name="Aacute">
          15 callsubr
          89 callgsubr
          hintmask 11010100
          128 callgsubr
          hintmask 11101010
          -171 -498 -92 callsubr
          -80 624 -84 callgsubr
          -75 -475 59 callsubr
        </CharString>
        <CharString name="Abreve">
          15 callsubr
          63 70 89 callgsubr
          hintmask 11011010
          128 callgsubr
          hintmask 11101101
          -171 -498 -92 callsubr
          -79 652 -72 callgsubr
          -76 -503 59 callsubr
        </CharString>
        <CharString name="Acircumflex">
          15 callsubr
          86 -20 23 -20 89 callgsubr
          hintmask 1101010100000000
          128 callgsubr
          hintmask 1101011010000000
          -171 -498 -92 callsubr
          -342 532 -70 callgsubr
          rlineto
          hintmask 1110101000000000
          -109 -114 rlineto
          215 -415 59 callsubr
        </CharString>
        <CharString name="Adieresis">
          15 callsubr
          68 105 353 callsubr
          -54 103 82 103 -92 234 hintmask 1101101100000000
          128 callgsubr
          hintmask 1101110010000000
          -171 -498 -92 callsubr
          hintmask 1110101100000000
          -263 599 -85 callsubr
          -77 -450 59 callsubr
        </CharString>
        <CharString name="Agrave">
          15 callsubr
          92 -20 89 callgsubr
          hintmask 11011010
          128 callgsubr
          hintmask 11101101
          -171 -498 -92 callsubr
          -308 694 -10 callsubr
          -19 -421 59 callsubr
        </CharString>
        <CharString name="Amacron">
          15 callsubr
          88 60 145 callgsubr
          -415 258 -77 234 hintmask 1101101000000000
          128 callgsubr
          hintmask 1101110010000000
          -171 -498 -92 callsubr
          hintmask 1110100100000000
          -351 566 214 callgsubr
          196 -477 59 callsubr
        </CharString>
        <CharString name="Aogonek">
          95 -188 56 132 42 129 50 265 84 0 -20 353 callsubr
          142 234 -214 80 hintmask 11101101
          550 -161 rmoveto
          -16 39 rlineto
          -7 -16 -16 -3 -15 hhcurveto
          -29 -21 13 27 36 38 36 52 20 hvcurveto
          hintmask 11101110
          44 42 hlineto
          -43 11 -10 3 -7 6 -4 10 rlinecurve
          -176 498 rlineto
          -95 hlineto
          -171 -498 -3 -10 -7 -6 -10 -3 rlinecurve
          -47 -11 rlineto
          -42 197 42 vlineto
          -70 13 37 116 rlineto
          207 hlineto
          39 -116 -71 -13 rlineto
          -42 122 -2 vlineto
          hintmask 11101101
          -53 -21 -49 -41 -52 vvcurveto
          -49 42 -23 52 35 38 10 17 26 vhcurveto
          -198 382 rmoveto
          -174 hlineto
          hintmask 11110101
          85 265 rlineto
          endchar
        </CharString>
        <CharString name="Aring">
          95 0 42 129 50 347 32 -31 -20 150 42 353 callsubr
          -15 57 95 58 -53 234 hintmask 1101101100000000
          390 284 callgsubr
          hintmask 1110101100000000
          -40 19 -30 36 -14 vhcurveto
          hintmask 1101110010000000
          -170 -496 -92 callsubr
          hintmask 1101101100000000
          -176 497 34 14 24 28 1 39 rlinecurve
          hintmask 1110101100000000
          194 callgsubr
          115 -431 59 callsubr
        </CharString>
        <CharString name="Atilde">
          15 callsubr
          66 67 -46 -20 49 67 89 callgsubr
          hintmask 1101010010000000
          128 callgsubr
          hintmask 1101100101000000
          -171 -498 -92 callsubr
          -62 640 92 callgsubr
          hintmask 1101011010000000
          -30 callsubr
          hintmask 1101100010000000
          37 33 -50 55 hhcurveto
          hintmask 1101100101000000
          53 38 48 48 13 hvcurveto
          -93 -491 rmoveto
          -174 hlineto
          hintmask 1110010010000000
          85 265 rlineto
          endchar
        </CharString>
        <CharString name="B">
          83 -4 44 -40 40 230 48 213 37 -37 42 hstemhm
          113 99 172 98 -70 109 hintmask 10101110
          482 440 rmoveto
          87 -48 46 -144 vhcurveto
          hintmask 01110101
          -46 -35 -5 -46 hhcurveto
          -126 -43 hlineto
          61 -12 rlineto
          9 -2 6 -8 -9 vvcurveto
          -421 vlineto
          -10 -6 -8 -10 -2 vhcurveto
          -60 -11 rlineto
          -42 125 vlineto
          52 27 -4 45 hhcurveto
          hintmask 10101101
          180 55 74 98 82 -56 49 -82 4 hvcurveto
          hintmask 10101110
          63 17 36 50 70 vvcurveto
          -270 87 rmoveto
          1 12 29 3 22 hhcurveto
          78 31 -32 -69 -75 -33 -37 -65 -16 -29 -1 1 -29 hvcurveto
          hintmask 10101101
          70 -278 rmoveto
          -22 -30 3 3 -18 hvcurveto
          222 vlineto
          1 30 34 1 20 hhcurveto
          79 37 -30 -80 -79 -37 -41 -93 hvcurveto
          endchar
        </CharString>
        <CharString name="C">
          264 callsubr
          hstem
          42 112 vstem
          301 -11 rmoveto
          61 -93 callsubr
          -180 84 -105 175 hvcurveto
          endchar
        </CharString>
        <CharString name="Cacute">
          264 callsubr
          hstem
          42 112 vstem
          301 -11 rmoveto
          61 -93 callsubr
          -180 84 -105 175 hvcurveto
          146 707 -84 callgsubr
          endchar
        </CharString>
        <CharString name="Ccaron">
          264 callsubr
          170 -21 hstem
          42 112 vstem
          301 -11 rmoveto
          61 -93 callsubr
          -180 84 -105 175 hvcurveto
          123 770 -66 callgsubr
        </CharString>
        <CharString name="Ccedilla">
          51 290 callsubr
          21 46 497 46 hstemhm
          42 112 141 81 vstemhm
          376 -98 rmoveto
          38 -26 24 -37 3 vhcurveto
          1 -6 -5 0 -4 hhcurveto
          hintmask 10111100
          7 21 rlineto
          57 -93 callsubr
          -168 73 -102 152 -14 hvcurveto
          hintmask 11111100
          -19 -56 rlineto
          25 -1 22 -10 -25 vvcurveto
          -26 -27 -22 -49 -4 vhcurveto
          5 -35 rlineto
          -1 6 4 0 8 hhcurveto
          76 58 37 55 hvcurveto
          endchar
        </CharString>
        <CharString name="Ccircumflex">
          264 callsubr
          58 142 callgsubr
          42 112 hintmask 11011000
          301 -11 rmoveto
          61 -93 callsubr
          -180 84 -105 175 hvcurveto
          -116 615 -70 callgsubr
          rlineto
          hintmask 11101000
          83 callgsubr
        </CharString>
        <CharString name="Cdotaccent">
          264 callsubr
          43 115 hstem
          42 112 90 122 vstem
          301 -11 rmoveto
          61 -93 callsubr
          -180 84 -105 175 hvcurveto
          65 689 -24 callsubr
        </CharString>
        <CharString name="D">
          318 callsubr
          247 callsubr
          247 108 hintmask 10011100
          162 568 rmoveto
          hintmask 01101100
          105 callgsubr
          hintmask 10011100
          33 callgsubr
          endchar
        </CharString>
        <CharString name="Dcaron">
          318 callsubr
          175 -21 247 callsubr
          247 108 hintmask 10011110
          162 568 rmoveto
          hintmask 01101110
          105 callgsubr
          hintmask 10011110
          33 callgsubr
          201 711 -66 callgsubr
        </CharString>
        <CharString name="Dcroat">
          -62 callgsubr
        </CharString>
        <CharString name="E">
          48 callgsubr
          354 callgsubr
          191 49 vstem
          -105 callsubr
          endchar
        </CharString>
        <CharString name="Eacute">
          48 callgsubr
          354 callgsubr
          191 49 vstem
          -105 callsubr
          6 273 -84 callgsubr
          endchar
        </CharString>
        <CharString name="Ebreve">
          48 callgsubr
          45 70 354 callgsubr
          191 49 vstem
          -105 callsubr
          7 301 -72 callgsubr
          endchar
        </CharString>
        <CharString name="Ecaron">
          48 callgsubr
          180 -21 354 callgsubr
          191 49 vstem
          -105 callsubr
          -17 336 -66 callgsubr
        </CharString>
        <CharString name="Ecircumflex">
          48 callgsubr
          292 callsubr
          113 100 191 49 hintmask 11101110
          -105 callsubr
          -256 181 -70 callgsubr
          rlineto
          hintmask 11110110
          83 callgsubr
        </CharString>
        <CharString name="Edieresis">
          48 callgsubr
          50 105 247 callsubr
          -89 103 82 103 -8 49 hintmask 11101001
          -105 callsubr
          hintmask 11110110
          -177 248 -85 callsubr
          endchar
        </CharString>
        <CharString name="Edotaccent">
          48 callgsubr
          53 115 247 callsubr
          -6 122 75 49 hintmask 11101010
          -105 callsubr
          hintmask 11110110
          -75 255 -24 callsubr
        </CharString>
        <CharString name="Egrave">
          48 callgsubr
          74 -20 354 callgsubr
          191 49 vstem
          -105 callsubr
          -222 343 -10 callsubr
          endchar
        </CharString>
        <CharString name="Emacron">
          48 callgsubr
          70 60 247 callsubr
          -74 258 7 49 hintmask 11111010
          -105 callsubr
          -265 215 rmoveto
          hintmask 11110100
          258 60 hlineto
          hintmask 11111010
          -258 hlineto
          endchar
        </CharString>
        <CharString name="Eng">
          176 -186 52 -31 -21 27 -21 180 42 -27 -21 531 43 hstemhm
          113 61 314 60 hintmask 01010111
          548 29 rmoveto
          462 vlineto
          13 7 7 11 2 vhcurveto
          53 12 rlineto
          43 -211 -43 vlineto
          61 -12 313 callgsubr
          -8 -12 vvcurveto
          -340 vlineto
          -273 417 -77 callgsubr
          376 vlineto
          hintmask 10001111
          303 -457 -10 -50 -21 -31 -31 -19 rlinecurve
          -25 -15 -36 -9 -29 -4 rrcurveto
          hintmask 00110111
          3 -46 rlineto
          hintmask 01010111
          -3 19 17 -3 21 hhcurveto
          127 36 88 127 hvcurveto
          endchar
        </CharString>
        <CharString name="Eogonek">
          42 -188 56 132 49 213 57 203 46 354 callgsubr
          73 81 37 49 vstem
          479 -161 rmoveto
          -16 265 callsubr
          -14 hhcurveto
          -29 -21 13 27 38 47 39 57 15 hvcurveto
          9 53 5 51 1 52 -49 7 rcurveline
          -28 -83 -5 -11 -4 77 callgsubr
          -30 -3 -30 hhcurveto
          -100 215 hlineto
          170 -4 rlineto
          62 vlineto
          -170 -6 rlineto
          206 81 vlineto
          29 27 -3 -5 15 hvcurveto
          12 -5 6 -6 3 -11 18 -69 rcurveline
          49 hlineto
          -88 callgsubr
          354 -2 vlineto
          -56 -21 -49 -41 -52 vvcurveto
          -48 42 -24 329 callgsubr
          endchar
        </CharString>
        <CharString name="Eth">
          -62 callgsubr
        </CharString>
        <CharString name="Euro">
          71 341 callsubr
          hstem
          113 104 vstem
          485 20 rmoveto
          8 43 2 44 -2 37 -55 5 rcurveline
          -24 -69 -4 -11 -5 -7 -8 -6 rlinecurve
          -11 -13 -24 -10 -27 hhcurveto
          -65 -35 48 89 -12 hvcurveto
          149 45 -152 hlineto
          -1 10 0 10 10 vvcurveto
          10 0 10 1 9 vhcurveto
          158 44 -155 hlineto
          101 13 41 44 60 hhcurveto
          24 24 -6 -9 13 hvcurveto
          10 -7 5 -7 3 -15 16 -72 rcurveline
          54 hlineto
          6 47 4 46 -3 40 rrcurveto
          17 -43 -54 9 -44 hhcurveto
          -119 -85 -62 -126 -25 hvcurveto
          -82 -44 76 hlineto
          -1 -12 -1 -13 -14 -7 0 -6 -7 vvcurveto
          -80 -45 85 hlineto
          -118 18 72 -62 126 hhcurveto
          52 61 11 17 38 hvcurveto
          endchar
        </CharString>
        <CharString name="Euro.tf">
          -30 341 callsubr
          hstemhm
          2 168 -106 102 hintmask 11110100
          -1 172 rmoveto
          69 hlineto
          -121 16 67 -59 122 hhcurveto
          48 56 10 17 39 hvcurveto
          7 43 2 46 -3 39 -55 4 rcurveline
          -21 -68 -3 -13 -6 -9 -9 -7 rlinecurve
          -11 -13 -21 -8 -26 hhcurveto
          -57 -31 47 90 -10 hvcurveto
          134 45 -138 hlineto
          9 0 9 10 vvcurveto
          11 0 10 1 10 vhcurveto
          140 44 -137 hlineto
          102 11 38 43 54 hhcurveto
          21 20 -6 -10 12 hvcurveto
          7 -7 4 -7 3 -14 16 -72 rcurveline
          54 hlineto
          7 47 3 46 -2 40 rrcurveto
          18 -41 -51 8 -41 hhcurveto
          hintmask 11111000
          -112 -80 -59 -129 -22 hvcurveto
          -69 -44 hlineto
          hintmask 11110100
          63 hlineto
          -1 -12 0 -13 -14 -7 0 -7 -6 vvcurveto
          -65 hlineto
          endchar
        </CharString>
        <CharString name="F">
          2 0 42 212 57 211 46 354 callgsubr
          191 49 vstem
          383 252 rmoveto
          62 vlineto
          -170 -6 rlineto
          214 81 vlineto
          29 27 -3 -5 15 hvcurveto
          12 -5 6 -6 3 -11 18 -69 rcurveline
          49 hlineto
          23 callsubr
          -415 -43 hlineto
          58 -69 callgsubr
          -417 vlineto
          -11 -6 -8 -11 -2 vhcurveto
          -59 -11 rlineto
          -42 286 42 vlineto
          -92 12 rlineto
          -10 1 -8 8 10 vvcurveto
          183 vlineto
          endchar
        </CharString>
        <CharString name="G">
          105 -10 34 callgsubr
          329 callsubr
          hintmask 01111100
          13 callsubr
          hintmask 10111100
          -87 callgsubr
          hintmask 01111100
          55 -51 rlineto
          endchar
        </CharString>
        <CharString name="Gbreve">
          105 -10 34 callgsubr
          35 70 329 callsubr
          hintmask 01111110
          13 callsubr
          hintmask 10111110
          -87 callgsubr
          hintmask 01111110
          55 -51 rlineto
          -28 729 -72 callgsubr
          endchar
        </CharString>
        <CharString name="Gcircumflex">
          105 -10 34 callgsubr
          58 -20 23 -20 329 callsubr
          hintmask 01110111
          13 callsubr
          hintmask 10110111
          -87 callgsubr
          hintmask 01110111
          55 -51 rlineto
          -291 609 -70 callgsubr
          rlineto
          hintmask 01111011
          83 callgsubr
        </CharString>
        <CharString name="Gcommaaccent">
          105 -171 -21 182 34 callgsubr
          hstemhm
          42 115 126 70 59 97 hintmask 10111101
          13 callsubr
          hintmask 11011101
          -87 callgsubr
          hintmask 10111111
          55 -51 rlineto
          -135 -104 -98 callgsubr
        </CharString>
        <CharString name="Gdotaccent">
          105 -10 34 callgsubr
          43 115 hstemhm
          42 115 99 122 34 97 hintmask 01110101
          13 callsubr
          hintmask 10110101
          -87 callgsubr
          hintmask 01111111
          55 -51 rlineto
          -110 683 -24 callsubr
        </CharString>
        <CharString name="H">
          351 callsubr
          354 callgsubr
          245 100 vstem
          -50 callgsubr
          endchar
        </CharString>
        <CharString name="Hbar">
          197 0 42 204 53 77 44 105 43 hstem
          114 100 244 100 vstem
          41 376 rmoveto
          73 -301 hlineto
          -12 -6 -8 -13 -2 vhcurveto
          -57 -11 rlineto
          -42 245 42 vlineto
          -51 23 callgsubr
          171 244 -171 -49 callsubr
          -11 -2 vhcurveto
          -48 -11 rlineto
          -42 241 42 vlineto
          -57 11 -4 callgsubr
          8 12 vvcurveto
          301 73 44 -73 71 vlineto
          12 7 8 12 2 vhcurveto
          57 12 rlineto
          43 -240 -43 vlineto
          47 -12 rlineto
          11 -3 189 callsubr
          -71 -244 71 vlineto
          13 5 7 12 2 vhcurveto
          51 12 rlineto
          43 -244 -43 vlineto
          58 -69 callgsubr
          -71 -73 vlineto
          173 -121 rmoveto
          77 244 -77 vlineto
          endchar
        </CharString>
        <CharString name="Hcircumflex">
          351 callsubr
          292 callsubr
          113 100 245 100 hintmask 11101110
          -50 callgsubr
          -417 79 -70 callgsubr
          rlineto
          hintmask 11110110
          83 callgsubr
        </CharString>
        <CharString name="I">
          -148 129 callgsubr
          -72 callsubr
          endchar
        </CharString>
        <CharString name="IJ">
          147 129 callgsubr
          354 callgsubr
          208 100 vstem
          -100 callsubr
          250 -12 -75 callgsubr
          endchar
        </CharString>
        <CharString name="Iacute">
          -148 129 callgsubr
          -72 callsubr
          16 171 -84 callgsubr
          endchar
        </CharString>
        <CharString name="Iacute_J.NLD">
          157 129 callgsubr
          354 callgsubr
          219 100 vstem
          -100 callsubr
          16 171 -84 callgsubr
          245 -183 -75 callgsubr
          69 183 -84 callgsubr
          endchar
        </CharString>
        <CharString name="Ibreve">
          -148 129 callgsubr
          45 70 -72 callsubr
          17 199 -72 callgsubr
          endchar
        </CharString>
        <CharString name="Icircumflex">
          -148 129 callgsubr
          292 callsubr
          113 100 hintmask 11011000
          -100 callsubr
          -246 79 -70 callgsubr
          rlineto
          hintmask 11101000
          83 callgsubr
        </CharString>
        <CharString name="Idieresis">
          -148 129 callgsubr
          50 105 hstemhm
          19 103 -9 100 -9 103 hintmask 11110100
          289 568 rmoveto
          -252 -43 hlineto
          hintmask 11101000
          -97 callsubr
          hintmask 11110100
          -27 callsubr
          252 42 vlineto
          hintmask 11101000
          -57 11 295 callsubr
          8 12 vvcurveto
          416 vlineto
          13 6 7 13 2 vhcurveto
          hintmask 11110100
          57 12 rlineto
          -167 146 -85 callsubr
          endchar
        </CharString>
        <CharString name="Idotaccent">
          -148 129 callgsubr
          53 115 hstemhm
          102 122 -111 100 hintmask 11101000
          -100 callsubr
          hintmask 11110000
          -65 153 -24 callsubr
        </CharString>
        <CharString name="Igrave">
          -148 129 callgsubr
          74 -20 -72 callsubr
          -212 241 -10 callsubr
          endchar
        </CharString>
        <CharString name="Imacron">
          -148 129 callgsubr
          70 60 -72 callsubr
          -255 113 214 callgsubr
          endchar
        </CharString>
        <CharString name="Iogonek">
          -148 -188 56 132 42 483 43 hstemhm
          63 80 -30 100 hintmask 11101000
          256 -161 rmoveto
          hintmask 11110000
          -16 265 callsubr
          -15 hhcurveto
          -28 -22 13 27 36 36 36 51 20 hvcurveto
          hintmask 11101000
          59 42 hlineto
          -57 11 295 callsubr
          8 12 vvcurveto
          416 vlineto
          13 6 7 13 2 vhcurveto
          57 12 rlineto
          43 -252 -43 vlineto
          -97 callsubr
          hintmask 11110000
          -27 callsubr
          125 -2 vlineto
          -51 -21 -48 -41 -52 vvcurveto
          -49 42 -23 53 vhcurveto
          hintmask 11101000
          34 38 10 17 26 hvcurveto
          endchar
        </CharString>
        <CharString name="Itilde">
          -148 129 callgsubr
          48 264 callgsubr
          113 100 hintmask 11010100
          -100 callsubr
          hintmask 11100100
          34 187 92 callgsubr
          hintmask 11011100
          -30 callsubr
          hintmask 11100100
          37 33 -50 55 hhcurveto
          53 38 48 48 13 hvcurveto
          endchar
        </CharString>
        <CharString name="J">
          -169 525 43 hstem
          105 100 vstem
          223 513 -75 callgsubr
          endchar
        </CharString>
        <CharString name="Jacute">
          -169 525 43 hstem
          105 100 vstem
          223 513 -75 callgsubr
          71 183 -84 callgsubr
          endchar
        </CharString>
        <CharString name="Jcircumflex">
          -169 525 43 292 callsubr
          105 100 hintmask 10110000
          223 513 -75 callgsubr
          -191 91 -70 callgsubr
          rlineto
          hintmask 11010000
          83 callgsubr
        </CharString>
        <CharString name="K">
          113 0 42 470 -20 33 43 247 callsubr
          148.5 205.5 hintmask 10111000
          -12 callsubr
          hintmask 11111000
          65 -13 -214 -250 rlineto
          hintmask 10111000
          79 callsubr
          endchar
        </CharString>
        <CharString name="Kcommaaccent">
          113 215 callsubr
          42 470 -20 33 43 247 callsubr
          101 70 -22.5 205.5 hintmask 11011010
          -12 callsubr
          hintmask 11111010
          65 -13 -214 -250 rlineto
          hintmask 11011100
          79 callsubr
          347 -109 -98 callgsubr
        </CharString>
        <CharString name="L">
          28 0 50 475 43 354 callgsubr
          -88 callsubr
          endchar
        </CharString>
        <CharString name="Lacute">
          28 0 50 475 43 354 callgsubr
          -88 callsubr
          -91 510 -84 callgsubr
          endchar
        </CharString>
        <CharString name="Lcaron">
          29 0 50 475 43 354 callgsubr
          -88 callsubr
          -48 207 43 callsubr
        </CharString>
        <CharString name="Lcommaaccent">
          28 215 callsubr
          50 475 43 354 callgsubr
          52 70 -88 callsubr
          -98 -295 -98 callgsubr
        </CharString>
        <CharString name="Ldot">
          31 0 50 212 115 148 43 354 callgsubr
          133 121 -88 callsubr
          34 133 rmoveto
          10 callsubr
        </CharString>
        <CharString name="Lslash">
          29 0 50 475 43 hstem
          114 100 vstem
          37 193 rmoveto
          77 31 rlineto
          -150 vlineto
          -12 -6 -7 58 callgsubr
          431 vlineto
          12 59 2 65 1 55 -50 7 rcurveline
          -33 -105 -4 -12 -7 -6 -11 -4 rlinecurve
          -6 -15 -27 -3 -33 hhcurveto
          -90 210 hlineto
          154 63 rlineto
          57 vlineto
          -154 -66 rlineto
          177 vlineto
          12 7 8 12 2 vhcurveto
          75 12 rlineto
          43 -270 -43 vlineto
          58 -11 rlineto
          12 -3 189 callsubr
          -214 vlineto
          -77 -31 rlineto
          endchar
        </CharString>
        <CharString name="M">
          332 0 42 450 76 -43 43 hstemhm
          20 211 -211 773 -239 239 hintmask 10101000
          654 490 rmoveto
          -2 13 6 8 13 2 66 12 rcurveline
          43 -220 vlineto
          -110 -412 -124 412 rlineto
          -220 -43 hlineto
          65 -12 12 -2 6 -8 -1 -13 rlinecurve
          hintmask 11010100
          -51 -415 -1 -12 -6 -7 -11 -3 rlinecurve
          -56 -11 rlineto
          -42 211 42 vlineto
          -76 12 49 437 150 -468 rlineto
          75 hlineto
          126 469 66 -438 -67 -12 rlineto
          -42 239 42 vlineto
          -54 11 -11 3 -7 7 -2 11 rlinecurve
          endchar
        </CharString>
        <CharString name="N">
          176 129 callgsubr
          hstem
          113 61 314 60 vstem
          -91 callgsubr
          endchar
        </CharString>
        <CharString name="NULL">
          endchar
        </CharString>
        <CharString name="Nacute">
          176 129 callgsubr
          hstem
          113 61 314 60 vstem
          -91 callgsubr
          -99 183 -84 callgsubr
          endchar
        </CharString>
        <CharString name="Ncaron">
          176 129 callgsubr
          180 -21 hstem
          113 61 314 60 vstem
          -91 callgsubr
          -122 246 -66 callgsubr
        </CharString>
        <CharString name="Ncommaaccent">
          176 215 callsubr
          42 483 43 hstem
          113 61 157 70 87 60 vstem
          -91 callgsubr
          -165 -622 -98 callgsubr
        </CharString>
        <CharString name="Ntilde">
          176 129 callgsubr
          48 264 callgsubr
          113 61 314 60 hintmask 11010110
          -91 callgsubr
          hintmask 11100110
          -81 199 -28 callgsubr
        </CharString>
        <CharString name="O">
          155 callgsubr
          hstem
          153 callsubr
          vstem
          -97 callgsubr
          endchar
        </CharString>
        <CharString name="OE">
          305 -8 44 -36 49 213 57 203 46 -37 43 hstemhm
          42 109 226 100 190 48 hintmask 10101110
          298 36 rmoveto
          -98 -49 78 168 173 51 76 99 26 26 -6 -15 24 hvcurveto
          -451 vlineto
          -17 -24 -27 -6 -28 hhcurveto
          hintmask 01110111
          436 -36 rmoveto
          9 53 5 51 1 52 -49 7 rcurveline
          -28 -83 -4 -11 -5 -7 -11 -4 rlinecurve
          -6 -15 -31 -3 -29 hhcurveto
          -100 215 hlineto
          170 -4 rlineto
          62 vlineto
          -170 -6 rlineto
          206 80 vlineto
          29 27 -3 -5 15 hvcurveto
          11 -4 7 -6 3 -12 18 -69 rcurveline
          48 hlineto
          5 51 0 47 -5 47 rrcurveto
          -338 hlineto
          hintmask 10101110
          4 -25 -25 2 -23 hhcurveto
          -164 -98 -106 -195 -182 82 -99 166 30 29 3 6 28 hvcurveto
          -1 vlineto
          endchar
        </CharString>
        <CharString name="Oacute">
          155 callgsubr
          hstem
          153 callsubr
          vstem
          -97 callgsubr
          142 165 -84 callgsubr
          endchar
        </CharString>
        <CharString name="Obreve">
          155 callgsubr
          35 70 hstem
          153 callsubr
          vstem
          -97 callgsubr
          143 193 -72 callgsubr
          endchar
        </CharString>
        <CharString name="Ocircumflex">
          155 callgsubr
          58 142 callgsubr
          153 callsubr
          hintmask 11011100
          -97 callgsubr
          -120 73 -70 callgsubr
          rlineto
          hintmask 11101100
          83 callgsubr
        </CharString>
        <CharString name="Odieresis">
          155 callgsubr
          40 105 hstemhm
          42 110 -4 103 82 103 -6 111 hintmask 11010010
          -97 callgsubr
          hintmask 11101100
          -41 140 -85 callsubr
          endchar
        </CharString>
        <CharString name="Ograve">
          155 callgsubr
          64 -20 hstem
          153 callsubr
          vstem
          -97 callgsubr
          -86 235 -10 callsubr
          endchar
        </CharString>
        <CharString name="Ohungarumlaut">
          155 callgsubr
          hstem
          153 callsubr
          vstem
          -97 callgsubr
          -100 68 10 callgsubr
        </CharString>
        <CharString name="Omacron">
          155 callgsubr
          60 60 hstemhm
          42 110 11 258 9 111 hintmask 11110100
          -97 callgsubr
          hintmask 11111100
          -129 107 214 callgsubr
          endchar
        </CharString>
        <CharString name="Oslash">
          107 -10 46 496 46 hstem
          40 105 289 105 vstem
          539 294 rmoveto
          111 -31 84 -64 47 vhcurveto
          34 67 -47 25 -34 -67 rlineto
          11 -28 -33 6 -37 hhcurveto
          -161 -98 -109 -195 -112 32 -85 66 -46 hvcurveto
          -41 -80 48 -25 40 80 rlineto
          -11 28 31 -5 36 hhcurveto
          162 97 111 193 hvcurveto
          -394 -12 rmoveto
          175 52 75 94 33 27 -9 -18 21 vhcurveto
          -194 -405 rlineto
          -22 40 -11 60 82 vvcurveto
          143 -246 rmoveto
          -32 -26 9 17 -21 hvcurveto
          193 403 rlineto
          22 -40 10 -59 -79 vvcurveto
          -174 -53 -77 -93 vhcurveto
          endchar
        </CharString>
        <CharString name="Otilde">
          155 callgsubr
          38 264 callgsubr
          153 callsubr
          hintmask 11010110
          -97 callgsubr
          hintmask 11100110
          160 181 -28 callgsubr
        </CharString>
        <CharString name="P">
          45 0 42 170 45 272 39 -39 44 247 callsubr
          179 103 hintmask 11101100
          213 525 rmoveto
          16 15 4 31 hhcurveto
          78 39 -34 -87 -116 -54 -35 -63 -25 -17 1 2 -20 hvcurveto
          107 -218 rmoveto
          -89 12 rlineto
          -10 1 -8 8 10 vvcurveto
          142 vlineto
          -2 21 21 -1 22 hhcurveto
          133 85 73 125 hvcurveto
          hintmask 11011100
          104 -47 58 -156 1 vhcurveto
          hintmask 11101100
          -60 -27 -5 -41 hhcurveto
          -127 -43 hlineto
          61 -12 rlineto
          9 -3 6 -8 -9 vvcurveto
          -420 vlineto
          -10 -6 -8 -11 -2 vhcurveto
          -59 -11 rlineto
          -42 283 vlineto
          endchar
        </CharString>
        <CharString name="Q">
          107 -152 71 83 36 -15 -21 529 47 hstemhm
          42 109 280 110 hintmask 10111100
          500 -152 rmoveto
          43 40 20 17 17 hvcurveto
          -10 37 rlineto
          -2 -10 -13 -1 -14 hhcurveto
          -44 -33 19 25 -37 hvcurveto
          -24 16 -21 13 -27 10 rrcurveto
          109 34 65 104 154 vvcurveto
          174 -78 110 -162 -161 -98 -111 -193 -172 76 -109 158 -3 vhcurveto
          -39 83 34 -103 107 hhcurveto
          -208 683 rmoveto
          93 46 -78 -166 hvcurveto
          hintmask 11011100
          -173 -51 -76 -91 -92 -46 78 166 vhcurveto
          hintmask 10111100
          173 51 76 90 vhcurveto
          endchar
        </CharString>
        <CharString name="R">
          104 0 180 callsubr
          179 106 hintmask 11011100
          151 callgsubr
          hintmask 11101100
          233 vlineto
          hintmask 11011100
          -84 callsubr
          hintmask 11101100
          -31 callsubr
          endchar
        </CharString>
        <CharString name="Racute">
          104 0 180 callsubr
          179 106 hintmask 11011100
          151 callgsubr
          hintmask 11101100
          233 vlineto
          hintmask 11011100
          -84 callsubr
          hintmask 11101100
          -31 callsubr
          382 696 -84 callgsubr
          endchar
        </CharString>
        <CharString name="Rcaron">
          104 0 42 205 43 239 39 -39 44 175 -21 247 callsubr
          179 106 hintmask 11011110
          151 callgsubr
          hintmask 11101110
          233 vlineto
          hintmask 11011110
          -84 callsubr
          hintmask 11101110
          -31 callsubr
          359 759 -66 callgsubr
        </CharString>
        <CharString name="Rcommaaccent">
          104 215 callsubr
          180 callsubr
          95 70 14 106 hintmask 11101101
          151 callgsubr
          hintmask 11110101
          233 vlineto
          hintmask 11101101
          -84 callsubr
          hintmask 11110111
          -31 callsubr
          341 -109 -98 callgsubr
        </CharString>
        <CharString name="S">
          -4 -12 45 502 43 hstem
          54 94 184 101 vstem
          -96 callsubr
          -7 -45 -4 -54 3 -49 rrcurveto
          -23 41 65 -23 76 hhcurveto
          145 59 85 82 hvcurveto
          endchar
        </CharString>
        <CharString name="Sacute">
          -4 -12 45 502 43 hstem
          54 94 184 101 vstem
          -96 callsubr
          -7 -45 -4 -54 3 -49 rrcurveto
          -23 41 65 -23 76 hhcurveto
          145 59 85 82 hvcurveto
          -50 541 -84 callgsubr
          endchar
        </CharString>
        <CharString name="Scaron">
          -4 -12 45 502 43 170 -21 hstem
          54 94 184 101 vstem
          -96 callsubr
          -7 -45 -4 -54 3 -49 rrcurveto
          -23 41 65 -23 76 hhcurveto
          145 59 85 82 hvcurveto
          -73 604 -66 callgsubr
        </CharString>
        <CharString name="Scedilla">
          -4 290 callsubr
          20 45 502 43 hstemhm
          54 94 76 81 27 101 hintmask 10111010
          -96 callsubr
          hintmask 11111110
          -7 -45 -4 -54 3 -49 35 -20 52 -19 61 -5 -18 -56 rcurveline
          -81 callsubr
          hintmask 10111110
          6 20 rlineto
          hintmask 10111010
          141 59 85 82 hvcurveto
          endchar
        </CharString>
        <CharString name="Scircumflex">
          -4 -12 45 502 43 58 142 callgsubr
          54 94 184 101 hintmask 11011100
          -96 callsubr
          -7 -45 -4 -54 3 -49 rrcurveto
          -23 41 65 -23 76 hhcurveto
          145 59 85 82 hvcurveto
          -312 449 -70 callgsubr
          rlineto
          hintmask 11101100
          83 callgsubr
        </CharString>
        <CharString name="Scommaaccent">
          -4 -171 -21 180 45 502 43 hstem
          54 94 63 70 51 101 vstem
          -96 callsubr
          -7 -45 -4 -54 3 -49 rrcurveto
          -23 41 65 -23 76 hhcurveto
          145 59 85 82 hvcurveto
          -152 -264 -98 callgsubr
        </CharString>
        <CharString name="T">
          87 0 42 341 172 callsubr
          150 51 hintmask 10101100
          -26 callgsubr
          hintmask 11001100
          265 callgsubr
          hintmask 10111100
          127 callsubr
          hintmask 11011100
          152 callgsubr
          hintmask 10101100
          -26 callsubr
          endchar
        </CharString>
        <CharString name="Tbar">
          87 0 42 192 50 99 172 callsubr
          150 51 hintmask 11010110
          138 234 rmoveto
          94 -157 hlineto
          -13 -7 -6 -12 -2 vhcurveto
          -86 -14 rlineto
          -42 308 42 vlineto
          -85 14 -4 callgsubr
          6 13 vvcurveto
          157 93 50 -93 238 39 vlineto
          29 24 -3 -4 13 hvcurveto
          10 -4 6 -6 2 -11 rrcurveto
          hintmask 11100110
          265 callgsubr
          hintmask 11011110
          127 callsubr
          hintmask 11101110
          152 callgsubr
          hintmask 11010110
          26 110 3 12 5 6 11 4 rlinecurve
          4 13 26 3 28 hhcurveto
          39 -238 -94 hlineto
          endchar
        </CharString>
        <CharString name="Tcaron">
          87 0 42 341 185 -46 46 180 -21 hstemhm
          26 55 151 99 150 51 hintmask 10110110
          -26 callgsubr
          hintmask 11010110
          265 callgsubr
          hintmask 10111110
          127 callsubr
          hintmask 11011110
          152 callgsubr
          hintmask 10110110
          -26 callsubr
          274 759 -66 callgsubr
        </CharString>
        <CharString name="Thorn">
          43 0 42 78 43 238 47 77 43 hstem
          110 99 174 106 vstem
          288 hmoveto
          42 vlineto
          -61 23 callgsubr
          49 vlineto
          -3 26 24 -1 36 hhcurveto
          124 70 54 119 106 -59 49 -114 -35 -35 -3 -4 -37 hvcurveto
          50 vlineto
          13 6 7 12 2 vhcurveto
          61 12 rlineto
          43 -247 -43 vlineto
          51 -95 callgsubr
          -51 -11 rlineto
          -42 vlineto
          240 163 rmoveto
          -23 -23 2 3 -26 hvcurveto
          229 vlineto
          3 22 23 1 23 hhcurveto
          79 1 27 -44 -69 vvcurveto
          -92 -40 -34 -62 vhcurveto
          endchar
        </CharString>
        <CharString name="U">
          145 -8 45 488 43 hstem
          92 103 264 67 vstem
          -104 callsubr
          endchar
        </CharString>
        <CharString name="Uacute">
          153 callgsubr
          hstem
          92 103 264 67 vstem
          -104 callsubr
          -126 128 -84 callgsubr
          endchar
        </CharString>
        <CharString name="Ubreve">
          153 callgsubr
          45 70 hstem
          92 103 264 67 vstem
          -104 callsubr
          -125 156 -72 callgsubr
          endchar
        </CharString>
        <CharString name="Ucircumflex">
          153 callgsubr
          292 callsubr
          92 103 264 67 hintmask 11011100
          -104 callsubr
          -388 36 -70 callgsubr
          rlineto
          hintmask 11101100
          83 callgsubr
        </CharString>
        <CharString name="Udieresis">
          153 callgsubr
          50 105 hstemhm
          92 103 -21 103 82 103 -3 67 hintmask 11110010
          -104 callsubr
          hintmask 11101100
          -309 103 -85 callsubr
          endchar
        </CharString>
        <CharString name="Ugrave">
          153 callgsubr
          74 -20 hstem
          92 103 264 67 vstem
          -104 callsubr
          -354 198 -10 callsubr
          endchar
        </CharString>
        <CharString name="Uhungarumlaut">
          153 callgsubr
          hstem
          92 103 264 67 vstem
          -104 callsubr
          -368 31 10 callgsubr
        </CharString>
        <CharString name="Umacron">
          153 callgsubr
          70 60 hstemhm
          92 103 -6 87 103 68 12 67 hintmask 11110110
          379 568 rmoveto
          -43 vlineto
          hintmask 11110010
          63 -12 rlineto
          12 -2 5 -7 -13 vvcurveto
          -286 vlineto
          -105 -36 -63 -97 -85 -46 51 120 183 callsubr
          7 9 11 2 vhcurveto
          hintmask 11101010
          63 12 rlineto
          43 vlineto
          hintmask 11110010
          -241 -43 hlineto
          40 -11 rlineto
          11 -3 189 callsubr
          -275 vlineto
          -154 69 -71 148 135 82 63 155 vhcurveto
          -47 callsubr
          vlineto
          hintmask 11101110
          -397 70 214 callgsubr
          endchar
        </CharString>
        <CharString name="Uogonek">
          144 -188 56 124 45 488 43 hstem
          92 103 60 80 124 67 vstem
          255 -116 rmoveto
          -48 42 -24 329 callgsubr
          -16 39 rlineto
          -7 -15 -18 -3 -14 hhcurveto
          -29 -21 12 28 38 43 34 68 45 hvcurveto
          52 33 28 62 90 vvcurveto
          -47 callsubr
          -207 -43 vlineto
          63 -12 rlineto
          12 -2 5 -7 -13 vvcurveto
          -286 vlineto
          -105 -36 -63 -97 -85 -46 51 120 183 callsubr
          7 9 11 2 vhcurveto
          63 12 rlineto
          43 -241 -43 vlineto
          40 -11 rlineto
          11 -3 189 callsubr
          -275 vlineto
          -154 69 -71 148 14 13 1 1 13 vhcurveto
          -2 vlineto
          -43 -20 -51 -36 -52 vvcurveto
          endchar
        </CharString>
        <CharString name="Uring">
          153 callgsubr
          29 43 96 42 hstemhm
          92 103 18 59 92 59 36 67 hintmask 11011011
          -104 callsubr
          hintmask 11111111
          -163 120 67 callgsubr
        </CharString>
        <CharString name="Utilde">
          153 callgsubr
          48 264 callgsubr
          92 103 264 67 hintmask 11010110
          -104 callsubr
          hintmask 11100110
          -108 144 -28 callgsubr
        </CharString>
        <CharString name="V">
          94 -2 93 -72 -21 513 -20 34 43 hstemhm
          -5 238 -238 573 -198 198 hintmask 01010100
          245 -2 rmoveto
          90 hlineto
          hintmask 10011010
          166 497 4 11 7 5 10 2 rlinecurve
          46 12 rlineto
          43 -198 -43 vlineto
          73 -14 -134 -420 rlineto
          hintmask 01111000
          -149 420 rlineto
          hintmask 01011000
          73 14 rlineto
          43 -238 -43 vlineto
          44 -12 10 -2 7 -5 4 -11 rlinecurve
          endchar
        </CharString>
        <CharString name="W">
          -54 callgsubr
          endchar
        </CharString>
        <CharString name="Wacute">
          -54 callgsubr
          142 334 -84 callgsubr
          endchar
        </CharString>
        <CharString name="Wcircumflex">
          107 callgsubr
          68 -20 23 -20 171 callsubr
          hintmask 0101011110000000
          -43 callsubr
          hintmask 1011011110000000
          152 callsubr
          hintmask 1001011110000000
          -22 callsubr
          hintmask 0111011110000000
          -120 420 rlineto
          hintmask 0101011110000000
          -42 callgsubr
          -120 242 -70 callgsubr
          rlineto
          hintmask 0101101110000000
          83 callgsubr
        </CharString>
        <CharString name="Wdieresis">
          107 callgsubr
          50 105 hstemhm
          -2 234 38 103 -58 228 -88 103 72 194 hintmask 0101111011000000
          -43 callsubr
          hintmask 1011110101000000
          152 callsubr
          hintmask 1001110101000000
          -22 callsubr
          hintmask 0111111011000000
          -120 420 rlineto
          hintmask 0101111011000000
          -42 callgsubr
          -41 309 -85 callsubr
          endchar
        </CharString>
        <CharString name="Wgrave">
          107 callgsubr
          74 -20 171 callsubr
          hintmask 01011111
          -43 callsubr
          hintmask 10111111
          152 callsubr
          hintmask 10011111
          -22 callsubr
          hintmask 01111111
          -120 420 rlineto
          hintmask 01011111
          -42 callgsubr
          -86 404 -10 callsubr
          endchar
        </CharString>
        <CharString name="X">
          78 0 42 470 -20 33 43 hstemhm
          8 205 -194 238 50 239 -205 190 hintmask 10110100
          546 hmoveto
          42 vlineto
          -42 11 -10 2 -7 4 -6 9 rlinecurve
          -156 236 rlineto
          hintmask 10110010
          137 194 6 9 7 4 9 2 rlinecurve
          47 12 rlineto
          43 -190 -43 vlineto
          hintmask 11101010
          65 -13 -111 -169 -104 169 rlineto
          hintmask 10101010
          66 13 rlineto
          43 -238 -43 vlineto
          42 -12 10 -3 6 -4 6 -9 rlinecurve
          144 -221 rlineto
          hintmask 10110100
          -145 -208 -7 -9 -5 -4 -10 -2 rlinecurve
          -52 -11 rlineto
          -42 205 42 vlineto
          -73 12 118 181 114 -181 -65 -12 rlineto
          -42 vlineto
          endchar
        </CharString>
        <CharString name="Y">
          -46 callgsubr
          endchar
        </CharString>
        <CharString name="Yacute">
          -46 callgsubr
          282 696 -84 callgsubr
          endchar
        </CharString>
        <CharString name="Ycircumflex">
          181 callsubr
          292 callsubr
          -5 241 -14 102 18 192 hintmask 10101010
          21 callsubr
          hintmask 10101101
          -36 callgsubr
          hintmask 11101100
          -123 226 rlineto
          hintmask 10101100
          21 callgsubr
          hintmask 10101010
          3 callgsubr
          20 604 -70 callgsubr
          rlineto
          hintmask 10110010
          83 callgsubr
        </CharString>
        <CharString name="Ydieresis">
          181 callsubr
          50 105 hstemhm
          -5 241 -106 103 -11 102 -9 103 -76 192 hintmask 1011001000000000
          21 callsubr
          hintmask 1011100010000000
          -36 callgsubr
          hintmask 1111100000000000
          -123 226 rlineto
          hintmask 1011100000000000
          21 callgsubr
          hintmask 1011001000000000
          3 callgsubr
          hintmask 1011010100000000
          99 671 -85 callsubr
          endchar
        </CharString>
        <CharString name="Ygrave">
          181 callsubr
          74 -20 hstemhm
          -5 241 -14 102 18 192 hintmask 10110100
          21 callsubr
          hintmask 10111010
          -36 callgsubr
          hintmask 11111000
          -123 226 rlineto
          hintmask 10111000
          21 callgsubr
          hintmask 10110100
          3 callgsubr
          54 766 -10 callsubr
          endchar
        </CharString>
        <CharString name="Z">
          -33 callsubr
          endchar
        </CharString>
        <CharString name="Zacute">
          -33 callsubr
          365 696 -84 callgsubr
          endchar
        </CharString>
        <CharString name="Zcaron">
          30 0 50 348 171 -47 47 179 -21 hstemhm
          23 441 hintmask 10111000
          -50 callsubr
          hintmask 11011000
          -9 -54 -4 -62 3 -55 rrcurveto
          55 hlineto
          hintmask 10111000
          9 callgsubr
          342 759 -66 callgsubr
        </CharString>
        <CharString name="Zdotaccent">
          30 0 50 348 171 -47 47 52 115 hstemhm
          206 122 hintmask 10101000
          -50 callsubr
          hintmask 11001000
          -9 -54 -4 -62 3 -55 rrcurveto
          55 hlineto
          hintmask 10111000
          9 callgsubr
          284 678 -24 callsubr
        </CharString>
        <CharString name="__periodcentered.CAT">
          -391 216 114 hstem
          -21 121 vstem
          100 273 205 callgsubr
        </CharString>
        <CharString name="__periodcentered.CAT.case">
          -472 262 114 hstem
          -153 120 vstem
          -33 319 222 callgsubr
          endchar
        </CharString>
        <CharString name="a">
          -58 callgsubr
          263 callsubr
          hintmask 10111100
          -92 callgsubr
          hintmask 01111100
          -94 callsubr
          hintmask 10111100
          200 callsubr
          endchar
        </CharString>
        <CharString name="aacute">
          -58 callgsubr
          224 -20 263 callsubr
          hintmask 10111110
          -92 callgsubr
          hintmask 01111110
          -94 callsubr
          hintmask 10111110
          200 callsubr
          29 465 -81 callgsubr
        </CharString>
        <CharString name="abreve">
          -58 callgsubr
          49 69 263 callsubr
          hintmask 10111110
          -92 callgsubr
          hintmask 01111110
          -94 callsubr
          hintmask 10111110
          200 callsubr
          205 594 -74 callgsubr
        </CharString>
        <CharString name="acircumflex">
          -58 callgsubr
          212 -20 263 callsubr
          hintmask 10111110
          -92 callgsubr
          hintmask 01111110
          -94 callsubr
          hintmask 10111110
          200 callsubr
          -46 466 -67 callgsubr
        </CharString>
        <CharString name="acute">
          -111 647 -20 hstem
          120 196 vstem
          147 457 -81 callgsubr
        </CharString>
        <CharString name="acutecomb">
          647 -20 hstem
          -62 196 vstem
          -35 457 -81 callgsubr
        </CharString>
        <CharString name="acutecomb.case">
          607 155 hstem
          -84 226 vstem
          142 696 -84 callgsubr
          endchar
        </CharString>
        <CharString name="adieresis">
          -58 callgsubr
          59 105 hstemhm
          32 100 -53 103 64 102 -76 94 hintmask 1011110010000000
          -92 callgsubr
          hintmask 0111110010000000
          -94 callsubr
          hintmask 1011110010000000
          200 callsubr
          hintmask 1011101100000000
          32 542 -86 callgsubr
        </CharString>
        <CharString name="ae">
          184 callsubr
          290 callgsubr
          95 164 92 hintmask 1001011110000000
          84 callgsubr
          hintmask 0111101110000000
          54 callgsubr
          hintmask 1001011110000000
          -46 29 49 -27 71 hhcurveto
          79 66 37 63 78 callgsubr
          32 31 45 hhcurveto
          hintmask 0111011110000000
          130 callsubr
          endchar
        </CharString>
        <CharString name="agrave">
          -58 callgsubr
          224 -20 263 callsubr
          hintmask 10111110
          -92 callgsubr
          hintmask 01111110
          -94 callsubr
          hintmask 10111110
          200 callsubr
          8 655 -38 callsubr
        </CharString>
        <CharString name="amacron">
          -58 callgsubr
          71 61 hstemhm
          32 100 -44 251 -67 94 hintmask 10111101
          -92 callgsubr
          hintmask 01111101
          -94 callsubr
          hintmask 10111101
          200 callsubr
          hintmask 10111010
          -62 502 111 callgsubr
        </CharString>
        <CharString name="ampersand">
          117 -10 47 -43 58 219 43 227 36 hstemhm
          37 89 -38 90 127 83 -22 191 hintmask 10110110
          178 455 rmoveto
          48 24 38 44 40 19 -34 -47 -52 -27 -46 -44 -35 vhcurveto
          -46 62 -10 34 32 vvcurveto
          63 -418 rmoveto
          hintmask 10111010
          -73 -42 45 65 48 24 28 27 23 hvcurveto
          38 -48 65 -80 57 -53 rrcurveto
          hintmask 10110110
          -20 -30 -34 -8 -32 hhcurveto
          hintmask 01111001
          316 234 rmoveto
          43 -191 -43 vlineto
          57 -12 rlineto
          13 -3 2 -10 -10 vvcurveto
          -34 -7 -43 -23 -34 vhcurveto
          -50 50 -59 68 -42 54 rrcurveto
          hintmask 01110110
          84 33 47 53 71 vvcurveto
          77 -53 46 -87 -100 -60 -61 -81 -51 24 -47 39 -56 vhcurveto
          hintmask 10111010
          -54 -20 -60 -40 -87 vvcurveto
          -100 80 -44 101 54 57 14 32 41 vhcurveto
          hintmask 01111001
          -31 39 31 -11 33 hhcurveto
          28 31 7 8 23 hvcurveto
          43 vlineto
          -56 -21 5 40 -42 hvcurveto
          42 40 17 48 9 52 2 13 2 5 12 4 rrcurveto
          endchar
        </CharString>
        <CharString name="aogonek">
          -31 -188 56 124 58 -33 -21 175.5 41.5 143 67 hstemhm
          32 100 94 80 -34 94 hintmask 11011001
          417 -161 rmoveto
          hintmask 11011010
          -15 265 callsubr
          -15 hhcurveto
          -28 -21 13 27 35 35 34 48 21 hvcurveto
          hintmask 11011101
          15 3 14 4 8 2 rrcurveto
          -94 callsubr
          200 callsubr
          hintmask 11011010
          51 46 20 33 30 hvcurveto
          hintmask 10111010
          8 -26 17 -16 23 -7 rrcurveto
          -50 343 callgsubr
          hintmask 11011001
          34 38 10 17 25 hvcurveto
          hintmask 11011101
          -230 211 rmoveto
          -38 -17 19 34 40 26 23 55 3 hvcurveto
          59 5 rlineto
          -94 vlineto
          -19 -22 -32 -11 -31 hhcurveto
          endchar
        </CharString>
        <CharString name="approxequal">
          3 87 71 -21 70 33 71 -21 70 hstemhm
          52 372 hintmask 10011000
          424 178 rmoveto
          -30 24 rlineto
          -25 -19 -26 -19 -29 hhcurveto
          hintmask 01011000
          98 callsubr
          hintmask 10011000
          213 callgsubr
          hintmask 01101000
          153 vmoveto
          -30 24 rlineto
          -25 -19 -26 -19 -29 hhcurveto
          hintmask 01011000
          98 callsubr
          hintmask 01101000
          213 callgsubr
          endchar
        </CharString>
        <CharString name="aring">
          -58 callgsubr
          42 41 93 42 hstemhm
          32 100 -20 58 88 58 -44 94 hintmask 1011111001000000
          -92 callgsubr
          hintmask 0111111001000000
          -94 callsubr
          hintmask 1011111001000000
          200 callsubr
          hintmask 1011110110000000
          166 561 -55 callsubr
        </CharString>
        <CharString name="asciicircum">
          -20 284 278 hstem
          34 388 vstem
          34 313 rmoveto
          38 -29 151 187 156 -187 43 29 -161 249 -77 -6 rlineto
          endchar
        </CharString>
        <CharString name="asciitilde">
          2 163 71 -21 70 hstemhm
          51 372 hintmask 10100000
          423 254 rmoveto
          -30 24 rlineto
          -25 -19 -26 -19 -29 hhcurveto
          hintmask 01100000
          98 callsubr
          hintmask 10100000
          213 callgsubr
          endchar
        </CharString>
        <CharString name="asterisk">
          -35 422 -20 95 -20 175 252 callgsubr
          497 17 callsubr
        </CharString>
        <CharString name="asterisk.gujr">
          -35 511 -20 144 252 callgsubr
          533 17 callsubr
        </CharString>
        <CharString name="at">
          297 -189 54 118 76 -71 63 281 55 124 54 hstemhm
          37 67 97 81 174 71 145 59 hintmask 1101111110000000
          336 -189 rmoveto
          77 70 21 33 40 hvcurveto
          -17 34 rlineto
          -20 -29 -70 -14 -55 hhcurveto
          -138 -110 94 195 218 140 139 177 122 129 -66 -177 hvcurveto
          hintmask 1011111110000000
          -141 -83 -76 -39 -16 -7 11 39 74 29 142 10 51 vhcurveto
          -56 18 -19 -24 rlineto
          18 -33 -30 7 -28 hhcurveto
          -124 -75 -132 -116 hvcurveto
          hintmask 1101111110000000
          -94 50 -62 59 69 54 87 89 33 vhcurveto
          hintmask 1011111110000000
          -7 -40 -3 -30 -20 vvcurveto
          -48 18 -33 38 67 152 100 200 180 -120 97 -163 -221 -191 -178 -256 1 vhcurveto
          hintmask 1101111110000000
          -192 2 109 -128 188 hhcurveto
          117 422 rmoveto
          -98 -31 -51 -76 -41 hhcurveto
          -34 -14 54 53 83 35 83 70 26 34 -13 -24 23 hvcurveto
          -4 -19 -6 -21 -7 -22 rrcurveto
          endchar
        </CharString>
        <CharString name="atilde">
          -58 callgsubr
          47 69 -18 69 -21 -20 263 callsubr
          hintmask 1011001110000000
          -92 callgsubr
          hintmask 0111001110000000
          -94 callsubr
          hintmask 1011001110000000
          200 callsubr
          hintmask 1011101110000000
          218 577 93 callgsubr
          hintmask 1011010110000000
          -30 callgsubr
          hintmask 1011101110000000
          50 callsubr
        </CharString>
        <CharString name="b">
          1 -8 44 328 61 217 -20 32 -20 hstemhm
          64 95 177 102 hintmask 11011100
          64 20 rmoveto
          -11 27 62 -17 63 196 callgsubr
          -51 -40 -19 -29 -29 hvcurveto
          hintmask 11101100
          265 vlineto
          hintmask 11011100
          -13 12 -46 -1 -61 -8 -46 -12 rlinecurve
          -40 vlineto
          52 -8 rlineto
          12 -1 7 -8 -12 vvcurveto
          159 -528 rmoveto
          -27 -21 319 callsubr
          31 234 callgsubr
        </CharString>
        <CharString name="backslash">
          -115 633 -20 hstem
          23 312 vstem
          335 -105 rmoveto
          -232 738 rlineto
          -80 hlineto
          233 -738 rlineto
          endchar
        </CharString>
        <CharString name="bar">
          -243 -112 802 hstem
          79 75 vstem
          79 -112 rmoveto
          75 802 -75 hlineto
          endchar
        </CharString>
        <CharString name="braceleft">
          -150 254 231 callsubr
          54 8 69 56 vvcurveto
          63 -39 33 -68 14 vhcurveto
          68 15 39 29 63 56 -8 69 53 190 callgsubr
          -45 -77 -70 13 -62 -52 vvcurveto
          -45 -9 -34 -87 -7 vhcurveto
          -66 vlineto
          87 -8 9 -33 -45 -53 -13 -61 -72 255 callsubr
        </CharString>
        <CharString name="braceleft.gujr">
          -150 228 231 callsubr
          46 8 60 48 vvcurveto
          63 -39 33 -68 14 vhcurveto
          68 14 39 30 62 49 -8 59 45 190 callgsubr
          -44 -78 -60 13 -53 -46 vvcurveto
          -45 -9 -33 -87 -8 vhcurveto
          -66 vlineto
          87 -7 9 -34 -45 -45 -13 -53 -62 255 callsubr
        </CharString>
        <CharString name="braceright">
          -150 254 253 callsubr
          71 -13 62 53 vvcurveto
          45 8 33 89 8 vhcurveto
          66 vlineto
          -89 7 -8 34 45 52 13 62 71 vvcurveto
          77 -41 44 -92 7 vhcurveto
          3 254 callgsubr
          -53 -8 -70 -56 vvcurveto
          -63 40 -32 67 -13 vhcurveto
          -67 -14 -40 -32 -63 -56 8 -69 -54 204 callsubr
        </CharString>
        <CharString name="braceright.gujr">
          -150 228 253 callsubr
          62 -13 53 45 vvcurveto
          45 8 34 89 7 vhcurveto
          66 vlineto
          -89 8 -8 33 45 46 13 53 61 vvcurveto
          78 -41 43 -92 8 vhcurveto
          2 254 callgsubr
          -46 -8 -59 -49 vvcurveto
          -62 40 -32 67 -14 vhcurveto
          -67 -14 -40 -31 -63 -49 8 -59 -46 204 callsubr
        </CharString>
        <CharString name="bracketleft">
          198 callgsubr
          758 -59 callgsubr
          203 callsubr
          705 vlineto
          14 7 6 13 2 vhcurveto
          92 9 rlineto
          41 vlineto
          -57 8 -75 4 -52 -1 -13 -13 rcurveline
          -845 305 callsubr
        </CharString>
        <CharString name="bracketleft.gujr">
          198 callgsubr
          710.5 46 203 callsubr
          658 vlineto
          13 7 7 13 1 vhcurveto
          92 10 rlineto
          41 vlineto
          -57 7 -75 4 -52 -1 -13 -13 rcurveline
          -797 305 callsubr
        </CharString>
        <CharString name="bracketright">
          198 callgsubr
          758 -59 callgsubr
          340 callgsubr
          845 vlineto
          -13 13 -52 1 -75 -4 -57 -8 rlinecurve
          -41 vlineto
          91 -9 rlineto
          13 -2 8 -6 -14 vvcurveto
          -705 195 callgsubr
        </CharString>
        <CharString name="bracketright.gujr">
          198 callgsubr
          710.5 46 340 callgsubr
          797 vlineto
          -13 13 -52 1 -75 -4 -57 -7 rlinecurve
          -41 vlineto
          91 -10 rlineto
          13 -1 8 -7 -13 vvcurveto
          -658 195 callgsubr
        </CharString>
        <CharString name="breve">
          -111 472 69 hstem
          41 282 vstem
          323 586 -74 callgsubr
        </CharString>
        <CharString name="brokenbar">
          -244 -112 802 hstem
          78 75 vstem
          78 345 rmoveto
          75 345 -75 hlineto
          -802 vmoveto
          75 344 -75 hlineto
          endchar
        </CharString>
        <CharString name="bullet">
          -148 142 178 hstem
          69 189 vstem
          258 231 205 callsubr
        </CharString>
        <CharString name="bullet.gujr">
          -72 173 178 hstem
          107 189 vstem
          296 262 205 callsubr
        </CharString>
        <CharString name="bulletoperator">
          -132 159 128 hstem
          107 130 vstem
          237 223 rmoveto
          38 -26 26 -39 -39 -26 -26 -38 -38 26 -26 39 39 26 26 38 vhcurveto
          endchar
        </CharString>
        <CharString name="c">
          263 callgsubr
          hstem
          37 104 vstem
          -89 callgsubr
          endchar
        </CharString>
        <CharString name="cacute">
          263 callgsubr
          222 -20 hstem
          37 104 vstem
          -89 callgsubr
          157 255 -81 callgsubr
        </CharString>
        <CharString name="caron">
          -111 648 313 callsubr
          44 285 hintmask 01100000
          297 649 rmoveto
          hintmask 10100000
          -21 callgsubr
          hintmask 01100000
          227 callsubr
        </CharString>
        <CharString name="ccaron">
          263 callgsubr
          223 313 callsubr
          37 104 hintmask 11011000
          -89 callgsubr
          307 447 rmoveto
          hintmask 11101000
          -21 callgsubr
          hintmask 11011000
          227 callsubr
        </CharString>
        <CharString name="ccedilla">
          -63 290 callsubr
          23 63 -39 -21 384 47 hstemhm
          37 104 74 81 hintmask 10011110
          37 202 rmoveto
          -109 49 -83 102 -16 vhcurveto
          hintmask 11011110
          -20 -60 rlineto
          -81 callsubr
          hintmask 10101110
          7 23 rlineto
          76 55 34 50 22 hvcurveto
          -24 20 rlineto
          -21 -21 -35 -20 -45 hhcurveto
          -74 -38 55 111 109 36 49 58 21 18 -6 -9 11 hvcurveto
          8 -7 3 -9 4 -15 17 -64 rcurveline
          48 hlineto
          7 40 4 47 -3 42 rrcurveto
          16 -31 -53 12 -48 hhcurveto
          hintmask 10011110
          -129 -75 -88 -135 hvcurveto
          endchar
        </CharString>
        <CharString name="ccircumflex">
          263 callgsubr
          210 -20 hstem
          37 104 vstem
          -89 callgsubr
          82 256 -67 callgsubr
        </CharString>
        <CharString name="cdotaccent">
          263 callgsubr
          54 114 hstem
          37 104 36 120 vstem
          -89 callgsubr
          260 334 -73 callgsubr
          endchar
        </CharString>
        <CharString name="cedilla">
          -111 -190 36 88 85 hstem
          183 81 vstem
          164 19 rmoveto
          -28 -85 rlineto
          -81 callsubr
          16 51 rlineto
          endchar
        </CharString>
        <CharString name="cent">
          -45 301 callsubr
          39 104 47 59 -25 59 hintmask 01011100
          39 -33 callgsubr
        </CharString>
        <CharString name="cent.tf">
          -30 301 callsubr
          45 104 47 59 -25 59 hintmask 01011100
          45 -33 callgsubr
        </CharString>
        <CharString name="circumflex">
          -111 635 -20 hstem
          40 285 vstem
          72 458 -67 callgsubr
        </CharString>
        <CharString name="colon">
          -241 -7 115 190 114 hstem
          57 120 vstem
          177 355 222 callgsubr
          -305 vmoveto
          35 -24 23 -36 -36 -24 -23 -35 -34 24 -23 36 36 189 callgsubr
        </CharString>
        <CharString name="colon.gujr">
          -185 70 106 122 106 hstem
          90 111 vstem
          201 351 rmoveto
          232 callsubr
          -228 vmoveto
          232 callsubr
          endchar
        </CharString>
        <CharString name="comma">
          -252 -155 272 hstem
          99 76 vstem
          175 27 rmoveto
          59 -31 31 -38 -34 -23 -24 -33 -26 15 -16 14 -9 vhcurveto
          12 -8 9 -3 -19 vvcurveto
          -34 -24 -40 -39 -34 vhcurveto
          20 -26 rlineto
          65 36 54 68 78 vvcurveto
          endchar
        </CharString>
        <CharString name="comma.gujr">
          -201 -142 248 hstem
          128 70 vstem
          198 24 rmoveto
          54 -28 28 -35 -31 -21 -22 -30 -23 14 -15 13 -8 vhcurveto
          11 -7 7 -3 -18 vvcurveto
          -30 -21 286 callsubr
          endchar
        </CharString>
        <CharString name="copyright">
          254 -43 43 101 58 264 46 101 42 hstem
          38 50 113 85 355 49 vstem
          363 101 rmoveto
          67 48 31 41 20 hvcurveto
          -22 21 rlineto
          -21 -20 -35 -14 -35 hhcurveto
          -65 -35 48 88 83 30 45 52 18 17 -6 -8 11 hvcurveto
          10 -7 3 -8 2 -9 14 -55 rcurveline
          44 hlineto
          7 38 2 37 -3 35 rrcurveto
          15 -22 -46 14 -47 hhcurveto
          -104 -73 -67 -121 -108 60 -72 102 hvcurveto
          -275 184 rmoveto
          167 115 118 162 161 115 -118 -167 -166 -115 -119 -161 -162 -115 119 166 vhcurveto
          -50 hmoveto
          -188 139 -140 188 187 138 140 188 188 -138 139 -187 -188 -139 -139 -188 vhcurveto
          endchar
        </CharString>
        <CharString name="currency">
          37 117 68 193 68 hstem
          94 72 180 73 vstem
          94 277 rmoveto
          -36 11 -32 18 -26 vhcurveto
          -78 -79 42 -43 81 80 rlineto
          -15 25 30 -9 32 hhcurveto
          33 30 10 17 25 hvcurveto
          81 -81 43 42 -80 81 rlineto
          20 28 12 34 37 vvcurveto
          36 -11 32 -19 26 vhcurveto
          80 79 -44 44 -81 -81 rlineto
          16 -26 -30 9 -33 hhcurveto
          -33 -29 -10 -17 -25 hvcurveto
          -81 82 -42 -43 80 -80 rlineto
          -19 -29 -12 -35 -37 vvcurveto
          162 -92 rmoveto
          -49 -41 42 53 50 30 48 58 49 43 -43 -55 -52 -30 -43 -60 hvcurveto
          endchar
        </CharString>
        <CharString name="d">
          22 -61 callsubr
          endchar
        </CharString>
        <CharString name="dagger">
          -121 407 42.5 hstemhm
          126 103 -84.5 76.5 hintmask 10100000
          199 -91 rmoveto
          22 461 rlineto
          7 6 6 13 3 vhcurveto
          hintmask 11000000
          88 21 rlineto
          44 vlineto
          -104 -3 5 95 rlineto
          63 -103 -63 vlineto
          4 -95 -104 3 rlineto
          -44 vlineto
          hintmask 10100000
          89 -21 11 -2 5 -5 3 -8 rlinecurve
          21 -462 rlineto
          endchar
        </CharString>
        <CharString name="daggerdbl">
          -108 235 43 129 42.5 hstemhm
          132 103 -92.5 84.5 -71.5 63.5 hintmask 11001000
          205 -92 rmoveto
          14 286 rlineto
          9 6 6 13 3 vhcurveto
          97 23 rlineto
          45 vlineto
          hintmask 11010000
          -113 -4 5 94 rlineto
          7 6 6 13 3 vhcurveto
          hintmask 11100000
          89 21 rlineto
          44 vlineto
          -105 -3 5 95 rlineto
          63 -103 -63 vlineto
          5 -95 -105 3 rlineto
          -44 vlineto
          hintmask 11010000
          89 -21 11 -3 6 -4 2 -9 rlinecurve
          5 -94 -113 4 rlineto
          -45 vlineto
          hintmask 11001000
          97 -23 12 -3 6 -5 2 -10 rlinecurve
          13 -285 rlineto
          endchar
        </CharString>
        <CharString name="dcaron">
          35 -61 callsubr
          304 482 43 callsubr
        </CharString>
        <CharString name="dcroat">
          22 -8 59 -58 55.5 318.5 47 64 46 117 294 callsubr
          38 102 178 95 hintmask 10110111
          187 478 rmoveto
          131 -71 hlineto
          4 -19 -24 3 -24 hhcurveto
          -131 -82 -74 -148 -141 72 -59 91 54 40 22 32 28 hvcurveto
          -32 11 23 -21 40 hhcurveto
          26 34 9 5 16 hvcurveto
          hintmask 01111011
          39 vlineto
          -40 5 rlineto
          -12 1 -8 5 17 vvcurveto
          404 53 46 -53 117 vlineto
          hintmask 10110111
          -13 13 -45 -1 -63 -7 -46 -14 rlinecurve
          -39 vlineto
          53 -7 313 callgsubr
          -7 -13 vvcurveto
          -40 -131 vlineto
          49 -473 rmoveto
          -55 -41 37 117 125 48 37 63 26 25 -7 -8 16 hvcurveto
          -274 vlineto
          -16 -22 -30 -11 -30 hhcurveto
          endchar
        </CharString>
        <CharString name="degree">
          -138 339 55 153 54 hstem
          36 59 146 60 vstem
          168 339 rmoveto
          74 59 56 75 72 -56 59 -77 -72 -60 -56 -75 -71 60 -60 72 hvcurveto
          55 vmoveto
          -40 -33 35 41 44 30 33 42 42 32 -35 -42 -44 -30 -32 -43 hvcurveto
          endchar
        </CharString>
        <CharString name="dieresis">
          -111 482 105 hstem
          47 103 64 102 vstem
          150 534 -86 callgsubr
        </CharString>
        <CharString name="divide">
          -43 43 99 52 62 51 100 hstem
          163 106 vstem
          384 194 rmoveto
          62 -336 -62 vlineto
          221 -102 rmoveto
          30 -21 20 -32 -32 -21 -20 -30 -29 21 -20 32 32 21 20 29 vhcurveto
          265 vmoveto
          30 -21 20 -32 -32 -21 -20 -30 -30 21 -20 32 32 21 20 30 vhcurveto
          endchar
        </CharString>
        <CharString name="dollar">
          -43 233 callgsubr
          48 90 37 59 -31 59 41 96 hintmask 10111101
          399 -55 callgsubr
        </CharString>
        <CharString name="dollar.tf">
          -30 233 callgsubr
          54 90 37 59 -31 59 41 96 hintmask 10111101
          405 -55 callgsubr
        </CharString>
        <CharString name="dotaccent">
          -111 479 114 hstem
          130 120 vstem
          250 536 -73 callgsubr
          endchar
        </CharString>
        <CharString name="dotlessi">
          -36 callsubr
          hstem
          95 96 vstem
          -96 callgsubr
          endchar
        </CharString>
        <CharString name="dotlessiogonek">
          220 callsubr
          hstemhm
          41 81 -27 96 hintmask 11101000
          234 -161 rmoveto
          hintmask 11110000
          209 callgsubr
          hintmask 11101000
          64 callsubr
          hintmask 11110000
          209 callsubr
          hintmask 11101000
          35 38 10 17 25 hvcurveto
          endchar
        </CharString>
        <CharString name="dotlessj">
          -225 -174 -21 618 -20 hstem
          87 95 vstem
          169 423 -71 callsubr
          endchar
        </CharString>
        <CharString name="e">
          48 callsubr
          hstem
          37 100 164 91 vstem
          -102 callgsubr
          endchar
        </CharString>
        <CharString name="eacute">
          48 callsubr
          222 -20 hstem
          37 100 164 91 vstem
          -102 callgsubr
          -35 77 -81 callgsubr
        </CharString>
        <CharString name="ebreve">
          48 callsubr
          47 69 hstem
          37 100 164 91 vstem
          -102 callgsubr
          141 206 -74 callgsubr
        </CharString>
        <CharString name="ecaron">
          48 callsubr
          223 313 callsubr
          37 100 164 91 hintmask 11101110
          -102 callgsubr
          115 269 rmoveto
          hintmask 11110110
          -21 callgsubr
          hintmask 11101110
          227 callsubr
        </CharString>
        <CharString name="ecircumflex">
          48 callsubr
          210 -20 hstem
          37 100 164 91 vstem
          -102 callgsubr
          -110 78 -67 callgsubr
        </CharString>
        <CharString name="edieresis">
          48 callsubr
          57 105 hstemhm
          37 100 -47 103 64 102 -58 91 hintmask 11111001
          -102 callgsubr
          hintmask 11110110
          -32 154 -86 callgsubr
        </CharString>
        <CharString name="edotaccent">
          48 callsubr
          54 114 hstemhm
          37 100 36 120 8 91 hintmask 11101010
          -102 callgsubr
          hintmask 11111110
          68 156 -73 callgsubr
          endchar
        </CharString>
        <CharString name="egrave">
          48 callsubr
          222 -20 hstem
          37 100 164 91 vstem
          -102 callgsubr
          -56 267 -38 callsubr
        </CharString>
        <CharString name="eight">
          -8 -10 47 429 45 hstemhm
          41 338 callgsubr
          41 -48 callsubr
        </CharString>
        <CharString name="eight.tf">
          -30 -10 47 429 45 hstemhm
          29 338 callgsubr
          29 -48 callsubr
        </CharString>
        <CharString name="ellipsis">
          174 -7 115 hstem
          48 121 95 121 96 120 vstem
          385 50 rmoveto
          35 -24 23 -36 -36 -25 -23 291 callgsubr
          36 24 23 34 vhcurveto
          216 hmoveto
          35 -23 23 -37 -36 -24 -23 349 callsubr
          -432 hmoveto
          10 callsubr
        </CharString>
        <CharString name="ellipsis.gujr">
          236 -7 107 hstem
          83 112 104 112 105 112 vstem
          411 46 rmoveto
          32 -22 22 -34 -34 -22 -22 -32 -31 22 -22 34 34 22 22 31 vhcurveto
          217 hmoveto
          32 -23 22 -33 -34 -22 -22 -32 -31 22 -22 34 33 23 22 31 vhcurveto
          -433 hmoveto
          212 callsubr
        </CharString>
        <CharString name="emacron">
          48 callsubr
          69 61 hstemhm
          37 100 -38 251 -49 91 hintmask 11111010
          -102 callgsubr
          hintmask 11110100
          -126 114 111 callgsubr
        </CharString>
        <CharString name="emdash">
          337 184 65 hstem
          55 702 vstem
          55 184 rmoveto
          702 65 -702 hlineto
          endchar
        </CharString>
        <CharString name="emdash.gujr">
          337 213 75 hstem
          55 702 287 callgsubr
          675 hlineto
          19 -68 -8 -7 rlineto
          -675 hlineto
          endchar
        </CharString>
        <CharString name="endash">
          59 184 65 hstem
          55 425 vstem
          55 184 rmoveto
          425 65 -425 hlineto
          endchar
        </CharString>
        <CharString name="endash.gujr">
          59 213 75 hstem
          55 425 287 callgsubr
          398 hlineto
          19 -68 -8 -7 rlineto
          -398 hlineto
          endchar
        </CharString>
        <CharString name="eng">
          42 -186 46 -25 -21 24 -21 183 -59 callgsubr
          315.5 62 hstemhm
          95 96 167 97 hintmask 01011110
          455 7 rmoveto
          258 vlineto
          102 -29 56 -98 -52 -50 -15 -42 -39 vhcurveto
          -6 44 -15 13 -42 -1 -52 -6 -43 -13 rlinecurve
          -83 callsubr
          -261 vlineto
          -12 -6 -8 -56 callsubr
          210 336 callgsubr
          -11 3 -7 7 12 vvcurveto
          261 vlineto
          19 27 33 10 31 hhcurveto
          58 18 -33 -77 hvcurveto
          -231 vlineto
          hintmask 10011110
          -70 -7 -37 -19 -21 vhcurveto
          -20 -21 -33 -6 -25 -5 rrcurveto
          hintmask 00111110
          3 -43 rlineto
          hintmask 01011110
          -2 16 18 -1 16 hhcurveto
          106 42 68 125 hvcurveto
          endchar
        </CharString>
        <CharString name="enspace">
          -50 endchar
        </CharString>
        <CharString name="eogonek">
          -45 -188 56 123 63 175 42 108 46 hstem
          37 100 41 80 43 91 vstem
          178 -116 rmoveto
          -49 43 -23 51 35 37 10 17 26 vhcurveto
          -16 265 callsubr
          -16 hhcurveto
          -27 -21 13 28 35 27 34 50 42 hvcurveto
          3 1 3 2 2 2 24 19 15 22 9 24 -28 18 rcurveline
          -34 -24 -42 -20 -45 hhcurveto
          -72 -43 45 124 hvcurveto
          6 250 vlineto
          3 16 2 22 16 vvcurveto
          89 -58 53 -98 -123 -76 -81 -141 -125 60 -87 128 12 11 1 1 10 vhcurveto
          -2 vlineto
          -34 -19 -46 -37 -51 vvcurveto
          47 495 rmoveto
          49 27 -37 -54 -7 -1 256 callsubr
          31 31 46 hhcurveto
          endchar
        </CharString>
        <CharString name="equal">
          -27 116 64 86 65 hstem
          55 335 vstem
          390 266 rmoveto
          65 -335 -65 vlineto
          335 -150 rmoveto
          64 -335 -64 vlineto
          endchar
        </CharString>
        <CharString name="estimated">
          40 -9 47 190 46 179 43 hstem
          43 117 205 110 vstem
          448 40 rmoveto
          -22 38 rlineto
          -23 -32 -45 -17 -54 hhcurveto
          -57 -51 20 31 -27 hvcurveto
          139 312 vlineto
          2 17 1 23 25 vvcurveto
          135 -2 -82 68 -117 hhcurveto
          -147 -84 -107 -143 -156 100 -99 146 61 58 18 31 40 hvcurveto
          -288 369 rmoveto
          26 23 40 18 48 hhcurveto
          39 37 -12 -20 18 hvcurveto
          -147 -205 vlineto
          endchar
        </CharString>
        <CharString name="eth">
          -6 -8 46 314 57 242 247 callgsubr
          38 104 181 101 hintmask 11011100
          424 236 rmoveto
          hintmask 11101100
          118 -47 116 -94 82 vhcurveto
          84 52 -32 47 rlineto
          hintmask 11011100
          -94 -67 -43 30 -50 23 -58 16 rlinecurve
          -18 -38 43 -21 37 -23 31 -25 rlinecurve
          -97 -62 31 -47 104 75 37 -39 27 -45 16 -52 rlinecurve
          23 -25 -35 10 -34 hhcurveto
          -76 -93 -55 -155 -132 67 -75 116 142 61 106 138 hvcurveto
          -192 -198 rmoveto
          -68 -22 69 91 116 36 38 55 32 29 -12 -22 21 hvcurveto
          6 -30 2 -32 -35 vvcurveto
          -124 -26 -59 -65 vhcurveto
          endchar
        </CharString>
        <CharString name="exclam">
          -229 -7 109 hstemhm
          65 116 -112 107 hintmask 10100000
          69 557 rmoveto
          26 -383 rlineto
          56 hlineto
          25 383 rlineto
          66 -107 vlineto
          hintmask 11000000
          112 -576 206 callgsubr
        </CharString>
        <CharString name="exclam.gujr">
          -80 -7 100 417 -20 hstemhm
          144 107 -103 100 hintmask 11010000
          224 151 rmoveto
          24 300 rlineto
          59 -100 -59 vlineto
          23 -300 rlineto
          hintmask 11100000
          80 -108 rmoveto
          30 -21 20 -32 -32 -22 -20 -30 -30 22 -20 32 32 21 20 30 vhcurveto
          endchar
        </CharString>
        <CharString name="exclamdown">
          -241 317 108 hstemhm
          59 116 -111 107 hintmask 10100000
          171 -205 rmoveto
          66 vlineto
          -25 383 rlineto
          -58 hlineto
          -24 -383 rlineto
          -66 vlineto
          hintmask 11000000
          111 576 rmoveto
          33 -23 21 -35 -35 -23 -21 -33 -33 23 -21 35 35 23 21 33 vhcurveto
          endchar
        </CharString>
        <CharString name="f">
          -145 0 46 310 57 159 82 hstem
          96 96 vstem
          97 446 rmoveto
          -32 vlineto
          -69 -11 -66 callsubr
          253 42 vlineto
          -76 8 rlineto
          -13 1 -6 7 12 vvcurveto
          286 120 57 -121 69 vlineto
          71 27 19 58 vhcurveto
          20 1 34 -4 28 -6 17 58 rcurveline
          19 -29 -34 14 -35 hhcurveto
          -88 -92 -99 -109 hvcurveto
          endchar
        </CharString>
        <CharString name="f_b">
          320 -8 44 -36 46 310 57 -49 61 148 81 -12 -20 hstemhm
          96 94 194 95 177 101 hintmask 0110101110000000
          285 hmoveto
          42 vlineto
          -75 8 rlineto
          -13 11 callgsubr
          125 57 -125 69 vlineto
          68 41 23 59 30 32 -4 -12 32 vhcurveto
          hintmask 1001011110000000
          -537 vlineto
          -11 27 62 -17 62 196 callgsubr
          -50 -40 -18 -30 -29 hvcurveto
          265 vlineto
          hintmask 0110101110000000
          -14 12 -23 -4 -28 -9 -28 -12 rlinecurve
          16 -29 -30 9 -28 hhcurveto
          -97 -105 -95 -109 hvcurveto
          -36 vlineto
          -69 -11 -66 callsubr
          vlineto
          hintmask 1001101110000000
          508 36 rmoveto
          -27 -20 319 callsubr
          30 hhcurveto
          62 38 -40 -118 -1 hvcurveto
          -119 -2 -39 -51 -73 hhcurveto
          endchar
        </CharString>
        <CharString name="f_f">
          149 0 46 310 57 139 81 -61 82 hstemhm
          96 94 203 94 hintmask 11011100
          274 hmoveto
          42 vlineto
          -64 8 rlineto
          -13 11 callgsubr
          203 -286 128 callsubr
          -41 -7 rlineto
          -42 250 42 vlineto
          -77 8 rlineto
          -12 11 callgsubr
          120 57 -120 69 vlineto
          71 27 19 57 vhcurveto
          21 1 33 -4 28 -6 18 59 rcurveline
          18 -30 -34 14 -35 hhcurveto
          -87 -91 -99 -109 hvcurveto
          -33 -204 vlineto
          hintmask 11101100
          -80 callsubr
          endchar
        </CharString>
        <CharString name="f_f_b">
          617 -8 44 -36 46 310 57 -49 61 127 81 -60 81 -12 -20 hstemhm
          96 94 203 94 194 95 176 102 hintmask 0110010111100000
          274 hmoveto
          42 vlineto
          -64 8 rlineto
          -13 11 callgsubr
          203 -286 vlineto
          -12 -35 callsubr
          251 42 vlineto
          -76 8 rlineto
          -12 11 callgsubr
          124 57 -124 69 vlineto
          68 43 23 56 30 33 -4 -12 32 vhcurveto
          hintmask 1001001111100000
          -537 vlineto
          -11 27 62 -17 62 196 callgsubr
          -51 -39 -18 -29 -29 hvcurveto
          264 vlineto
          hintmask 0110010111100000
          -15 12 -22 -4 -29 -9 -27 -12 rlinecurve
          16 -29 -31 9 -28 hhcurveto
          -94 -107 -95 -109 hvcurveto
          -37 -204 vlineto
          hintmask 0110100111100000
          -80 callsubr
          hintmask 1001010111100000
          805 36 rmoveto
          -27 -20 7 9 -16 hvcurveto
          286 vlineto
          17 22 26 9 30 234 callgsubr
        </CharString>
        <CharString name="f_f_h">
          653 53 callsubr
          -52 62 129 163 callsubr
          168 96 hintmask 1100101111000000
          -54 callsubr
          -485 vlineto
          -13 -6 295 callgsubr
          -42 -7 rlineto
          -42 208 214 callsubr
          -7 6 13 vvcurveto
          hintmask 1010011111000000
          260 vlineto
          21 28 33 9 33 -52 callsubr
          211 42 vlineto
          -44 7 353 callgsubr
          7 13 vvcurveto
          194 vlineto
          100 -29 58 -97 -52 -48 -15 -39 -38 vhcurveto
          272 vlineto
          hintmask 1100101111000000
          50 callgsubr
          hintmask 1101001111000000
          -80 callsubr
          endchar
        </CharString>
        <CharString name="f_f_k">
          628 53 callsubr
          -39 39 139 163 callsubr
          84 204 hintmask 1100101110000000
          -54 callsubr
          -485 -68 callsubr
          -42 -7 rlineto
          -42 216 42 vlineto
          -43 -29 callsubr
          61 vlineto
          63 64 157 callsubr
          -8 13 rlinecurve
          -69 122 -15 27 -12 19 -15 19 rlinecurve
          hintmask 1010101111000000
          85 87 10 10 7 2 16 3 rlinecurve
          43 11 rlineto
          hintmask 1100101111000000
          39 -204 vlineto
          hintmask 1010011111000000
          -39 vlineto
          71 -12 -155 -167 rlineto
          446 vlineto
          hintmask 1100101110000000
          50 callgsubr
          hintmask 1101001110000000
          -80 callsubr
          endchar
        </CharString>
        <CharString name="f_f_l">
          396 53 callsubr
          139 163 callsubr
          hintmask 11010111
          -54 callsubr
          -486 vlineto
          -12 -6 295 callgsubr
          -42 -7 rlineto
          -42 223 42 vlineto
          -50 -29 callsubr
          hintmask 11001111
          570 vlineto
          hintmask 11010111
          50 callgsubr
          hintmask 11100111
          -80 callsubr
          endchar
        </CharString>
        <CharString name="f_h">
          356 53 callsubr
          -52 62 150 81 -13 -20 hstemhm
          96 94 204 94 167 96 hintmask 11010111
          18 callgsubr
          -485 vlineto
          -13 236 callgsubr
          -42 -7 rlineto
          -42 208 150 callsubr
          hintmask 10101111
          261 vlineto
          20 28 33 9 32 -52 callsubr
          211 42 vlineto
          -43 -29 callsubr
          194 vlineto
          100 -29 58 -96 -51 -49 -15 -38 -38 vhcurveto
          271 vlineto
          hintmask 11010111
          -34 callsubr
        </CharString>
        <CharString name="f_k">
          331 53 callsubr
          -39 39 160 81 -13 -20 hstemhm
          96 94 204 94 83 205 hintmask 11010110
          18 callgsubr
          -485 vlineto
          -12 -7 -8 -12 -2 vhcurveto
          -42 -7 rlineto
          -42 216 42 vlineto
          -43 7 353 callgsubr
          7 13 vvcurveto
          62 vlineto
          62 63 157 callsubr
          -7 13 rlinecurve
          -70 122 -15 27 -12 19 -15 19 rlinecurve
          hintmask 10110111
          85 87 10 10 7 2 17 3 rlinecurve
          43 11 rlineto
          hintmask 11010111
          39 -205 vlineto
          hintmask 10101111
          -39 vlineto
          71 -12 -154 -166 rlineto
          445 vlineto
          hintmask 11010110
          -34 callsubr
        </CharString>
        <CharString name="f_l">
          100 53 callsubr
          160 81 -13 -20 hstemhm
          96 94 204 94 hintmask 11101100
          18 callgsubr
          -486 128 callsubr
          -42 -7 rlineto
          -42 224 42 vlineto
          -50 -29 callsubr
          hintmask 11011100
          570 vlineto
          hintmask 11101100
          -34 callsubr
        </CharString>
        <CharString name="five">
          -46 -10 61 212 61 104 73 hstem
          74.5 60.5 149 106 vstem
          57 6 callgsubr
        </CharString>
        <CharString name="five.tf">
          -30 -10 61 212 61 104 73 hstem
          82.5 60.5 149 106 vstem
          65 6 callgsubr
        </CharString>
        <CharString name="four">
          -26 0 147 -53 53 337 22 hstemhm
          261 85 hintmask 01110000
          37 31 callsubr
        </CharString>
        <CharString name="four.dnom">
          -96 0 111 -44 44 230 14 hstemhm
          210 69 hintmask 01110000
          51 67 rmoveto
          159 hlineto
          hintmask 10110000
          -67 69 vlineto
          hintmask 01110000
          0 callsubr
        </CharString>
        <CharString name="four.numr">
          -96 295 44 230 -20 20 14 hstemhm
          214 69 hintmask 11010000
          55 59 callgsubr
        </CharString>
        <CharString name="four.tf">
          -30 0 147 -53 53 337 22 hstemhm
          259 85 hintmask 01110000
          35 31 callsubr
        </CharString>
        <CharString name="foursuperior">
          -104 295 44 230 -20 20 14 hstemhm
          209 69 hintmask 11010000
          50 59 callgsubr
        </CharString>
        <CharString name="fraction">
          139 callsubr
        </CharString>
        <CharString name="g">
          34 callsubr
          215 callgsubr
          157 96 -44 96 hintmask 1110100010100000
          -40 callsubr
          hintmask 1111000101000000
          72 callgsubr
          hintmask 1110010101000000
          69 vlineto
          hintmask 1111000101000000
          89 callsubr
          hintmask 1110100101000000
          33 callsubr
          hintmask 1110100011000000
          88 callsubr
          hintmask 1110101001000000
          90 callgsubr
          hintmask 1110100010100000
          108 callgsubr
          hintmask 1110101000100000
          -23 callsubr
          hintmask 1110100010100000
          -63 -48 -31 -74 vhcurveto
          hintmask 1110100101000000
          -9 callsubr
          endchar
        </CharString>
        <CharString name="gbreve">
          34 callsubr
          73 69 -79 callsubr
          221 303 -74 callgsubr
        </CharString>
        <CharString name="gcircumflex">
          34 callsubr
          236 -20 -79 callsubr
          -30 175 -67 callgsubr
        </CharString>
        <CharString name="gcommaaccent">
          34 callsubr
          255 -20 215 callgsubr
          29 70 58 96 -44 96 hintmask 1110101001001000
          -40 callsubr
          hintmask 1111001010010000
          72 callgsubr
          hintmask 1110011010010000
          69 vlineto
          hintmask 1111001010010000
          89 callsubr
          hintmask 1110101010010000
          33 callsubr
          hintmask 1110101001010000
          88 callsubr
          hintmask 1110101100010000
          90 callgsubr
          hintmask 1110101001001000
          108 callgsubr
          hintmask 1110101100001000
          -23 callsubr
          hintmask 1110101001001000
          -63 -48 -31 -74 vhcurveto
          hintmask 1110101010010000
          -9 callsubr
          hintmask 1110101010110000
          26 264 82 callgsubr
        </CharString>
        <CharString name="gdotaccent">
          34 callsubr
          80 114 215 callgsubr
          31 120 6 96 -44 96 hintmask 1110100001001000
          -40 callsubr
          hintmask 1111000010010000
          72 callgsubr
          hintmask 1110010010010000
          69 vlineto
          hintmask 1111000010010000
          89 callsubr
          hintmask 1110100010010000
          33 callsubr
          hintmask 1110100001010000
          88 callsubr
          hintmask 1110100100010000
          90 callgsubr
          hintmask 1110100001001000
          108 callgsubr
          hintmask 1110100100001000
          -23 callsubr
          hintmask 1110100001001000
          -63 -48 -31 -74 vhcurveto
          hintmask 1110100010010000
          -9 callsubr
          hintmask 1110101010100000
          148 253 -73 callgsubr
          endchar
        </CharString>
        <CharString name="germandbls">
          96 -10 43 -33 -59 callgsubr
          368.5 -20 195 65 hstemhm
          95 96 81 91 12 98 -18 93 hintmask 10111101
          548 118 rmoveto
          63 -41 32 -62 35 vhcurveto
          -50 27 -32 18 35 vvcurveto
          37 35 27 57 13 vhcurveto
          hintmask 01111010
          11 29 7 36 31 vvcurveto
          95 -1 -71 58 -88 hhcurveto
          -115 -103 -97 -118 hvcurveto
          -25 vlineto
          -67 -11 rlineto
          -40 vlineto
          67 -9 rlineto
          -284 vlineto
          -12 -6 -7 -56 callsubr
          157 465 vlineto
          91 34 33 56 63 31 -44 -62 -18 -2 -23 -7 -21 vhcurveto
          hintmask 10111101
          -49 -22 -45 -38 -60 vvcurveto
          -60 43 -30 50 -28 vhcurveto
          52 -29 38 -21 -43 vvcurveto
          -35 -28 -22 -38 -26 -20 10 8 -11 vhcurveto
          -10 8 -3 6 -5 17 -14 53 rcurveline
          -49 hlineto
          -3 -20 -2 -22 -23 vvcurveto
          -15 1 -17 2 -17 vhcurveto
          -15 31 49 -16 55 hhcurveto
          93 71 44 84 hvcurveto
          endchar
        </CharString>
        <CharString name="grave">
          -111 647 -20 hstem
          67 192 vstem
          126 647 -38 callsubr
        </CharString>
        <CharString name="gravecomb">
          647 -20 hstem
          -115 192 vstem
          -56 647 -38 callsubr
        </CharString>
        <CharString name="gravecomb.case">
          642 -20 hstem
          -135 221 vstem
          -86 766 -10 callsubr
          endchar
        </CharString>
        <CharString name="greater">
          -60 42 362 hstem
          47 335 vstem
          382 197 rmoveto
          53 vlineto
          -306 154 -29 -63 254 -118 -254 -118 29 -63 rlineto
          endchar
        </CharString>
        <CharString name="greaterequal">
          -41 0 63 hstem
          53 335 vstem
          388 258 rmoveto
          52 vlineto
          -307 145 -27 -64 255 -107 -255 -107 27 -63 rlineto
          300 352 callsubr
        </CharString>
        <CharString name="guillemotleft">
          49 415 -20 hstem
          35 455 vstem
          251 196 78 callsubr
          -216 -53 78 callsubr
          endchar
        </CharString>
        <CharString name="guillemotleft.gujr">
          137 63 381 hstem
          80 454 vstem
          295 225 77 callsubr
          -215 -53 77 callsubr
          endchar
        </CharString>
        <CharString name="guillemotright">
          44 415 -20 hstem
          35 449 vstem
          484 196 98 callgsubr
          -3 162 98 callgsubr
          endchar
        </CharString>
        <CharString name="guillemotright.gujr">
          131 63 381 hstem
          78 448 vstem
          526 225 97 callsubr
          -1 162 97 callsubr
          endchar
        </CharString>
        <CharString name="guilsinglleft">
          -166 415 -20 hstem
          35 239 vstem
          35 196 78 callsubr
          endchar
        </CharString>
        <CharString name="guilsinglleft.gujr">
          -78 63 381 hstem
          78 239 vstem
          78 225 77 callsubr
          endchar
        </CharString>
        <CharString name="guilsinglright">
          -166 415 -20 hstem
          35 239 vstem
          274 196 98 callgsubr
          endchar
        </CharString>
        <CharString name="guilsinglright.gujr">
          -78 63 381 hstem
          80 239 vstem
          319 225 97 callsubr
          endchar
        </CharString>
        <CharString name="h">
          -57 callgsubr
          endchar
        </CharString>
        <CharString name="hbar">
          49 0 -59 callgsubr
          306.5 61 63 46 118 -20 34 -20 hstemhm
          85 96 167 96 hintmask 11101110
          22 476 rmoveto
          63 -405 hlineto
          -13 -35 callsubr
          211 150 callsubr
          251 vlineto
          20 28 33 10 336 callsubr
          -35 -76 hvcurveto
          -170 vlineto
          -13 -7 -6 -12 -3 vhcurveto
          -34 -7 rlineto
          -42 210 42 vlineto
          -42 -29 callsubr
          184 vlineto
          101 -29 57 -97 -51 -48 -15 -37 -38 vhcurveto
          115 122 46 -122 vlineto
          hintmask 11110110
          118 vlineto
          hintmask 11101110
          -14 14 rlineto
          -45 -62 175 callsubr
          -39 vlineto
          51 -8 rlineto
          12 -1 7 -8 -12 vvcurveto
          -44 -63 vlineto
          endchar
        </CharString>
        <CharString name="hcircumflex">
          -57 callgsubr
          12 679 -70 callgsubr
          83 callgsubr
        </CharString>
        <CharString name="hungarumlaut">
          -111 653 247 callgsubr
          71 309 hintmask 01100000
          102 467 53 callgsubr
          hintmask 10100000
          99 callgsubr
        </CharString>
        <CharString name="hyphen">
          -89 185 64 hstem
          55 276 vstem
          55 185 rmoveto
          276 64 -276 hlineto
          endchar
        </CharString>
        <CharString name="hyphen.gujr">
          -89 213 75 hstem
          55 276 287 callgsubr
          249 hlineto
          19 -68 -8 -7 rlineto
          -249 hlineto
          endchar
        </CharString>
        <CharString name="i">
          -36 callsubr
          76 114 hstemhm
          75 120 -100 96 hintmask 11101000
          -96 callgsubr
          hintmask 11110000
          4 464 -73 callgsubr
          endchar
        </CharString>
        <CharString name="iacute">
          -36 callsubr
          244 -20 hstem
          95 96 vstem
          -96 callgsubr
          -99 385 -81 callgsubr
        </CharString>
        <CharString name="iacute_j.NLD">
          51 210 callgsubr
          244 -20 hstemhm
          95 96 172 95 hintmask 11011110
          191 410 rmoveto
          -13 13 rlineto
          -46 91 callgsubr
          hintmask 11101110
          -83 callsubr
          -261 -49 callsubr
          261 callgsubr
          219 42 vlineto
          90 callsubr
          8 13 vvcurveto
          -99 385 rmoveto
          65 39 71 56 33 42 -60 53 rcurveline
          -136 -159 rlineto
          380 -65 -71 callsubr
          -105 47 -81 callgsubr
        </CharString>
        <CharString name="ibreve">
          -36 callsubr
          69 68 hstem
          95 96 vstem
          -96 callgsubr
          70 514 115 callsubr
        </CharString>
        <CharString name="icircumflex">
          -36 callsubr
          230 -20 hstem
          95 96 vstem
          -96 callgsubr
          -162 387 121 callsubr
        </CharString>
</ttFont>
